# Blender 4.0.2
# www.blender.org
mtllib Medic1.mtl
o Text.026
v -103.868263 2.376058 21.953255
v -102.495407 2.376058 21.953255
v -102.495407 2.376058 22.418674
v -103.868263 2.376058 22.418674
v -103.868263 2.376058 23.525463
v -104.445572 2.376058 23.525463
v -104.445572 2.376058 22.418674
v -105.818428 2.376058 22.418674
v -105.818428 2.376058 21.953255
v -104.445572 2.376058 21.953255
v -104.445572 2.376058 20.846466
v -103.868263 2.376058 20.846466
v -103.868263 1.552619 21.953255
v -102.495407 1.552619 21.953255
v -102.495407 1.552619 22.418674
v -103.868263 1.552619 22.418674
v -103.868263 1.552619 23.525463
v -104.445572 1.552619 23.525463
v -104.445572 1.552619 22.418674
v -105.818428 1.552619 22.418674
v -105.818428 1.552619 21.953255
v -104.445572 1.552619 21.953255
v -104.445572 1.552619 20.846466
v -103.868263 1.552619 20.846466
v -103.868263 1.552619 21.953255
v -103.868263 2.376058 21.953255
v -102.495407 1.552619 21.953255
v -102.495407 2.376058 21.953255
v -102.495407 1.552619 22.418674
v -102.495407 2.376058 22.418674
v -103.868263 1.552619 22.418674
v -103.868263 2.376058 22.418674
v -103.868263 1.552619 23.525463
v -103.868263 2.376058 23.525463
v -104.445572 1.552619 23.525463
v -104.445572 2.376058 23.525463
v -104.445572 1.552619 22.418674
v -104.445572 2.376058 22.418674
v -105.818428 1.552619 22.418674
v -105.818428 2.376058 22.418674
v -105.818428 1.552619 21.953255
v -105.818428 2.376058 21.953255
v -104.445572 1.552619 21.953255
v -104.445572 2.376058 21.953255
v -104.445572 1.552619 20.846466
v -104.445572 2.376058 20.846466
v -103.868263 1.552619 20.846466
v -103.868263 2.376058 20.846466
vn -0.0000 1.0000 -0.0000
vn -0.0000 -1.0000 -0.0000
vn 0.6276 -0.0000 -0.7785
vn 0.6276 -0.0000 0.7785
vn -0.6276 -0.0000 0.7785
vn -0.6276 -0.0000 -0.7785
vt 0.818182 0.000000
vt 1.000000 0.000000
vt 0.909091 0.000000
vt 0.000000 0.000000
vt 0.636364 0.000000
vt 0.727273 0.000000
vt 0.090909 0.000000
vt 0.181818 0.000000
vt 0.545455 0.000000
vt 0.454545 0.000000
vt 0.272727 0.000000
vt 0.363636 0.000000
vt 0.000000 1.000000
vt 0.083333 1.000000
vt 0.083333 0.000000
vt 0.166667 1.000000
vt 0.166667 0.000000
vt 0.250000 1.000000
vt 0.250000 0.000000
vt 0.333333 1.000000
vt 0.333333 0.000000
vt 0.416667 1.000000
vt 0.416667 0.000000
vt 0.500000 1.000000
vt 0.500000 0.000000
vt 0.583333 1.000000
vt 0.583333 0.000000
vt 0.666667 1.000000
vt 0.666667 0.000000
vt 0.750000 1.000000
vt 0.750000 0.000000
vt 0.833333 1.000000
vt 0.833333 0.000000
vt 0.916667 1.000000
vt 0.916667 0.000000
vt 1.000000 1.000000
s 0
usemtl Medic_1_Symbol
f 10/1/1 12/2/1 11/3/1
f 10/1/1 1/4/1 12/2/1
f 8/5/1 10/1/1 9/6/1
f 8/5/1 1/4/1 10/1/1
f 8/5/1 2/7/1 1/4/1
f 8/5/1 3/8/1 2/7/1
f 7/9/1 3/8/1 8/5/1
f 6/10/1 4/11/1 7/9/1
f 4/11/1 3/8/1 7/9/1
f 6/10/1 5/12/1 4/11/1
f 22/1/2 23/3/2 24/2/2
f 22/1/2 24/2/2 13/4/2
f 20/5/2 21/6/2 22/1/2
f 20/5/2 22/1/2 13/4/2
f 20/5/2 13/4/2 14/7/2
f 20/5/2 14/7/2 15/8/2
f 19/9/1 20/5/1 15/8/1
f 18/10/2 19/9/2 16/11/2
f 16/11/1 19/9/1 15/8/1
f 18/10/2 16/11/2 17/12/2
s 1
f 26/13/3 28/14/3 27/15/3 25/4/3
f 28/14/3 30/16/4 29/17/4 27/15/3
f 30/16/4 32/18/4 31/19/4 29/17/4
f 32/18/4 34/20/4 33/21/4 31/19/4
f 34/20/4 36/22/5 35/23/5 33/21/4
f 36/22/5 38/24/5 37/25/5 35/23/5
f 38/24/5 40/26/5 39/27/5 37/25/5
f 40/26/5 42/28/6 41/29/6 39/27/5
f 42/28/6 44/30/6 43/31/6 41/29/6
f 44/30/6 46/32/6 45/33/6 43/31/6
f 46/32/6 48/34/3 47/35/3 45/33/6
f 48/34/3 26/36/3 25/2/3 47/35/3
o Plane.060
v -112.565636 0.157995 23.688805
v -93.775185 0.157995 23.688805
v -112.565636 0.157995 20.742973
v -93.775185 0.157995 20.742973
v -112.565636 1.429020 20.742973
v -112.565636 1.429020 23.688805
v -93.775185 1.429020 23.688805
v -93.775185 1.429020 20.742973
v -112.565636 1.614589 20.742973
v -112.565636 1.614589 23.688805
v -93.775185 1.614589 23.688805
v -93.775185 1.614589 20.742973
v -113.290169 1.429020 20.629385
v -113.290169 1.429020 23.802393
v -93.050652 1.429020 23.802393
v -93.050652 1.429020 20.629385
v -113.290169 1.614589 20.629385
v -113.290169 1.614589 23.802393
v -93.050652 1.614589 23.802393
v -93.050652 1.614589 20.629385
v -93.775185 0.321905 20.742973
v -93.775185 0.321905 23.688805
v -112.565636 0.321905 23.688805
v -112.565636 0.321905 20.742973
v -112.565636 0.157995 21.479431
v -112.565636 0.157995 22.215889
v -112.565636 0.157995 22.952347
v -93.775185 0.157995 22.952347
v -93.775185 0.157995 22.215889
v -93.775185 0.157995 21.479431
v -112.565636 1.429020 21.479431
v -112.565636 1.429020 22.215889
v -112.565636 1.429020 22.952347
v -93.775185 1.429020 22.952347
v -93.775185 1.429020 22.215889
v -93.775185 1.429020 21.479431
v -112.565636 1.614589 21.479431
v -112.565636 1.614589 22.215889
v -112.565636 1.614589 22.952347
v -93.775185 1.614589 22.952347
v -93.775185 1.614589 22.215889
v -93.775185 1.614589 21.479431
v -113.290169 1.429020 21.422638
v -113.290169 1.429020 22.215889
v -113.290169 1.429020 23.009140
v -93.050652 1.429020 23.009140
v -93.050652 1.429020 22.215889
v -93.050652 1.429020 21.422638
v -113.290169 1.614589 21.422638
v -113.290169 1.614589 22.215889
v -113.290169 1.614589 23.009140
v -93.050652 1.614589 23.009140
v -93.050652 1.614589 22.215889
v -93.050652 1.614589 21.422638
v -112.565636 0.321905 22.952347
v -112.565636 0.321905 22.215889
v -112.565636 0.321905 21.479431
v -93.775185 0.321905 21.479431
v -93.775185 0.321905 22.215889
v -93.775185 0.321905 22.952347
v -93.775185 0.404733 21.357433
v -93.775185 0.404733 20.864971
v -93.775185 1.346193 20.864971
v -93.775185 1.346193 21.357433
v -93.775185 0.404733 23.566807
v -93.775185 0.404733 23.074345
v -93.775185 1.346193 23.074345
v -93.775185 1.346193 23.566807
v -93.775185 0.404733 22.830349
v -93.775185 0.404733 22.337887
v -93.775185 1.346193 22.337887
v -93.775185 1.346193 22.830349
v -93.775185 0.404733 22.093891
v -93.775185 0.404733 21.601429
v -93.775185 1.346193 21.601429
v -93.775185 1.346193 22.093891
v -110.686592 0.157995 23.688805
v -108.807541 0.157995 23.688805
v -106.928497 0.157995 23.688805
v -105.049454 0.157995 23.688805
v -103.170410 0.157995 23.688805
v -101.291367 0.157995 23.688805
v -99.412323 0.157995 23.688805
v -97.533279 0.157995 23.688805
v -95.654228 0.157995 23.688805
v -95.654228 0.157995 20.742973
v -97.533279 0.157995 20.742973
v -99.412323 0.157995 20.742973
v -101.291367 0.157995 20.742973
v -103.170410 0.157995 20.742973
v -105.049454 0.157995 20.742973
v -106.928497 0.157995 20.742973
v -108.807541 0.157995 20.742973
v -110.686592 0.157995 20.742973
v -110.686592 1.429020 23.688805
v -108.807541 1.429020 23.688805
v -106.928497 1.429020 23.688805
v -105.049454 1.429020 23.688805
v -103.170410 1.429020 23.688805
v -101.291367 1.429020 23.688805
v -99.412323 1.429020 23.688805
v -97.533279 1.429020 23.688805
v -95.654228 1.429020 23.688805
v -95.654228 1.429020 20.742973
v -97.533279 1.429020 20.742973
v -99.412323 1.429020 20.742973
v -101.291367 1.429020 20.742973
v -103.170410 1.429020 20.742973
v -105.049454 1.429020 20.742973
v -106.928497 1.429020 20.742973
v -108.807541 1.429020 20.742973
v -110.686592 1.429020 20.742973
v -110.686592 1.614589 23.688805
v -108.807541 1.614589 23.688805
v -106.928497 1.614589 23.688805
v -105.049454 1.614589 23.688805
v -103.170410 1.614589 23.688805
v -101.291367 1.614589 23.688805
v -99.412323 1.614589 23.688805
v -97.533279 1.614589 23.688805
v -95.654228 1.614589 23.688805
v -95.654228 1.614589 20.742973
v -97.533279 1.614589 20.742973
v -99.412323 1.614589 20.742973
v -101.291367 1.614589 20.742973
v -103.170410 1.614589 20.742973
v -105.049454 1.614589 20.742973
v -106.928497 1.614589 20.742973
v -108.807541 1.614589 20.742973
v -110.686592 1.614589 20.742973
v -111.266220 1.429020 23.802393
v -109.242264 1.429020 23.802393
v -107.218315 1.429020 23.802393
v -105.194366 1.429020 23.802393
v -103.170410 1.429020 23.802393
v -101.146461 1.429020 23.802393
v -99.122505 1.429020 23.802393
v -97.098557 1.429020 23.802393
v -95.074600 1.429020 23.802393
v -95.074600 1.429020 20.629385
v -97.098557 1.429020 20.629385
v -99.122505 1.429020 20.629385
v -101.146454 1.429020 20.629385
v -103.170410 1.429020 20.629385
v -105.194359 1.429020 20.629385
v -107.218315 1.429020 20.629385
v -109.242264 1.429020 20.629385
v -111.266220 1.429020 20.629385
v -111.266220 1.614589 23.802393
v -109.242264 1.614589 23.802393
v -107.218315 1.614589 23.802393
v -105.194366 1.614589 23.802393
v -103.170410 1.614589 23.802393
v -101.146461 1.614589 23.802393
v -99.122505 1.614589 23.802393
v -97.098557 1.614589 23.802393
v -95.074600 1.614589 23.802393
v -95.074600 1.614589 20.629385
v -97.098557 1.614589 20.629385
v -99.122505 1.614589 20.629385
v -101.146454 1.614589 20.629385
v -103.170410 1.614589 20.629385
v -105.194359 1.614589 20.629385
v -107.218315 1.614589 20.629385
v -109.242264 1.614589 20.629385
v -111.266220 1.614589 20.629385
v -95.654228 0.321905 23.688805
v -97.533279 0.321905 23.688805
v -99.412323 0.321905 23.688805
v -101.291367 0.321905 23.688805
v -103.170410 0.321905 23.688805
v -105.049454 0.321905 23.688805
v -106.928497 0.321905 23.688805
v -108.807541 0.321905 23.688805
v -110.686592 0.321905 23.688805
v -110.686592 0.321905 20.742973
v -108.807541 0.321905 20.742973
v -106.928497 0.321905 20.742973
v -105.049454 0.321905 20.742973
v -103.170410 0.321905 20.742973
v -101.291367 0.321905 20.742973
v -99.412323 0.321905 20.742973
v -97.533279 0.321905 20.742973
v -95.654228 0.321905 20.742973
v -95.654228 1.614589 22.952347
v -97.533279 1.614589 22.952347
v -99.412323 1.614589 22.952347
v -101.291367 1.614589 22.952347
v -103.170410 1.614589 22.952347
v -105.049454 1.614589 22.952347
v -106.928497 1.614589 22.952347
v -108.807541 1.614589 22.952347
v -110.686592 1.614589 22.952347
v -95.654228 1.614589 22.215889
v -97.533279 1.614589 22.215889
v -99.412323 1.614589 22.215889
v -101.291367 1.614589 22.215889
v -103.170410 1.614589 22.215889
v -105.049454 1.614589 22.215889
v -106.928497 1.614589 22.215889
v -108.807541 1.614589 22.215889
v -110.686592 1.614589 22.215889
v -95.654228 1.614589 21.479431
v -97.533279 1.614589 21.479431
v -99.412323 1.614589 21.479431
v -101.291367 1.614589 21.479431
v -103.170410 1.614589 21.479431
v -105.049454 1.614589 21.479431
v -106.928497 1.614589 21.479431
v -108.807541 1.614589 21.479431
v -110.686592 1.614589 21.479431
v -110.686592 0.157995 22.952347
v -108.807541 0.157995 22.952347
v -106.928497 0.157995 22.952347
v -105.049454 0.157995 22.952347
v -103.170410 0.157995 22.952347
v -101.291367 0.157995 22.952347
v -99.412323 0.157995 22.952347
v -97.533279 0.157995 22.952347
v -95.654228 0.157995 22.952347
v -110.686592 0.157995 22.215889
v -108.807541 0.157995 22.215889
v -106.928497 0.157995 22.215889
v -105.049454 0.157995 22.215889
v -103.170410 0.157995 22.215889
v -101.291367 0.157995 22.215889
v -99.412323 0.157995 22.215889
v -97.533279 0.157995 22.215889
v -95.654228 0.157995 22.215889
v -110.686592 0.157995 21.479431
v -108.807541 0.157995 21.479431
v -106.928497 0.157995 21.479431
v -105.049454 0.157995 21.479431
v -103.170410 0.157995 21.479431
v -101.291367 0.157995 21.479431
v -99.412323 0.157995 21.479431
v -97.533279 0.157995 21.479431
v -95.654228 0.157995 21.479431
v -95.286964 0.360996 23.688805
v -94.142456 0.360996 23.688805
v -94.142456 1.389929 23.688805
v -95.286964 1.389929 23.688805
v -112.198364 0.360996 23.688805
v -111.053856 0.360996 23.688805
v -111.053856 1.389929 23.688805
v -112.198364 1.389929 23.688805
v -110.319321 0.360996 23.688805
v -109.174812 0.360996 23.688805
v -109.174812 1.389929 23.688805
v -110.319321 1.389929 23.688805
v -108.440277 0.360996 23.688805
v -107.295769 0.360996 23.688805
v -107.295769 1.389929 23.688805
v -108.440277 1.389929 23.688805
v -106.561234 0.360996 23.688805
v -105.416725 0.360996 23.688805
v -105.416725 1.389929 23.688805
v -106.561234 1.389929 23.688805
v -104.682190 0.360996 23.688805
v -103.537674 0.360996 23.688805
v -103.537674 1.389929 23.688805
v -104.682190 1.389929 23.688805
v -102.803146 0.360996 23.688805
v -101.658630 0.360996 23.688805
v -101.658630 1.389929 23.688805
v -102.803146 1.389929 23.688805
v -100.924095 0.360996 23.688805
v -99.779587 0.360996 23.688805
v -99.779587 1.389929 23.688805
v -100.924095 1.389929 23.688805
v -99.045052 0.360996 23.688805
v -97.900543 0.360996 23.688805
v -97.900543 1.389929 23.688805
v -99.045052 1.389929 23.688805
v -97.166008 0.360996 23.688805
v -96.021500 0.360996 23.688805
v -96.021500 1.389929 23.688805
v -97.166008 1.389929 23.688805
v -94.142456 0.360996 23.651396
v -95.286964 0.360996 23.651396
v -95.286964 1.389929 23.651396
v -94.142456 1.389929 23.651396
v -111.053856 0.360996 23.651396
v -112.198364 0.360996 23.651396
v -112.198364 1.389929 23.651396
v -111.053856 1.389929 23.651396
v -109.174812 0.360996 23.651396
v -110.319321 0.360996 23.651396
v -110.319321 1.389929 23.651396
v -109.174812 1.389929 23.651396
v -107.295769 0.360996 23.651396
v -108.440277 0.360996 23.651396
v -108.440277 1.389929 23.651396
v -107.295769 1.389929 23.651396
v -105.416725 0.360996 23.651396
v -106.561234 0.360996 23.651396
v -106.561234 1.389929 23.651396
v -105.416725 1.389929 23.651396
v -103.537674 0.360996 23.651396
v -104.682190 0.360996 23.651396
v -104.682190 1.389929 23.651396
v -103.537674 1.389929 23.651396
v -101.658630 0.360996 23.651396
v -102.803146 0.360996 23.651396
v -102.803146 1.389929 23.651396
v -101.658630 1.389929 23.651396
v -99.779587 0.360996 23.651396
v -100.924095 0.360996 23.651396
v -100.924095 1.389929 23.651396
v -99.779587 1.389929 23.651396
v -97.900543 0.360996 23.651396
v -99.045052 0.360996 23.651396
v -99.045052 1.389929 23.651396
v -97.900543 1.389929 23.651396
v -96.021500 0.360996 23.651396
v -97.166008 0.360996 23.651396
v -97.166008 1.389929 23.651396
v -96.021500 1.389929 23.651396
v -112.565636 0.405082 23.074860
v -112.565636 0.405082 23.566292
v -112.565636 1.345844 23.566292
v -112.565636 1.345844 23.074860
v -112.565636 0.405082 20.865486
v -112.565636 0.405082 21.356918
v -112.565636 1.345844 21.356918
v -112.565636 1.345844 20.865486
v -112.565636 0.405082 21.601944
v -112.565636 0.405082 22.093376
v -112.565636 1.345844 22.093376
v -112.565636 1.345844 21.601944
v -112.565636 0.405082 22.338402
v -112.565636 0.405082 22.829834
v -112.565636 1.345844 22.829834
v -112.565636 1.345844 22.338402
v -111.075859 0.363338 20.742973
v -112.176361 0.363338 20.742973
v -112.176361 1.387587 20.742973
v -111.075859 1.387587 20.742973
v -94.164459 0.363338 20.742973
v -95.264961 0.363338 20.742973
v -95.264961 1.387587 20.742973
v -94.164459 1.387587 20.742973
v -96.043503 0.363338 20.742973
v -97.144005 0.363338 20.742973
v -97.144005 1.387587 20.742973
v -96.043503 1.387587 20.742973
v -97.922546 0.363338 20.742973
v -99.023048 0.363338 20.742973
v -99.023048 1.387587 20.742973
v -97.922546 1.387587 20.742973
v -99.801590 0.363338 20.742973
v -100.902092 0.363338 20.742973
v -100.902092 1.387587 20.742973
v -99.801590 1.387587 20.742973
v -101.680641 0.363338 20.742973
v -102.781136 0.363338 20.742973
v -102.781136 1.387587 20.742973
v -101.680641 1.387587 20.742973
v -103.559685 0.363338 20.742973
v -104.660179 0.363338 20.742973
v -104.660179 1.387587 20.742973
v -103.559685 1.387587 20.742973
v -105.438728 0.363338 20.742973
v -106.539230 0.363338 20.742973
v -106.539230 1.387587 20.742973
v -105.438728 1.387587 20.742973
v -107.317772 0.363338 20.742973
v -108.418274 0.363338 20.742973
v -108.418274 1.387587 20.742973
v -107.317772 1.387587 20.742973
v -109.196815 0.363338 20.742973
v -110.297318 0.363338 20.742973
v -110.297318 1.387587 20.742973
v -109.196815 1.387587 20.742973
vn -0.0000 -1.0000 -0.0000
vn -0.0000 1.0000 -0.0000
vn 1.0000 -0.0000 -0.0000
vn -1.0000 -0.0000 -0.0000
vn -0.0000 -0.0000 -1.0000
vn -0.0000 -0.0000 1.0000
vt 0.900000 0.750000
vt 0.900000 1.000000
vt 1.000000 1.000000
vt 1.000000 0.750000
vt 0.100000 0.000000
vt 0.000000 0.000000
vt 0.100000 0.000000
vt 1.000000 0.791414
vt 1.000000 0.958586
vt 1.000000 0.791414
vt 0.000000 0.208412
vt 0.000000 0.041588
vt 0.000000 0.041588
vt 0.079283 1.000000
vt 0.020717 1.000000
vt 0.020717 1.000000
vt 0.079283 1.000000
vt 0.819545 0.000000
vt 0.880455 0.000000
vt 0.900000 0.750000
vt 0.000000 0.250000
vt 0.900000 1.000000
vt 0.100000 1.000000
vt 0.000000 1.000000
vt 0.900000 0.000000
vt 1.000000 0.000000
vt 1.000000 0.250000
vt 0.000000 0.750000
vt 0.000000 0.250000
vt 1.000000 0.250000
vt 1.000000 0.500000
vt 1.000000 0.500000
vt 0.000000 0.500000
vt 0.000000 0.500000
vt 0.900000 0.250000
vt 0.900000 0.500000
vt 0.000000 0.958412
vt 0.000000 0.791588
vt 0.000000 0.791588
vt 0.000000 0.708412
vt 0.000000 0.541588
vt 0.000000 0.708412
vt 0.000000 0.458412
vt 0.000000 0.291588
vt 0.000000 0.458412
vt 1.000000 0.041414
vt 1.000000 0.208586
vt 1.000000 0.208586
vt 1.000000 0.041414
vt 1.000000 0.291414
vt 1.000000 0.458586
vt 1.000000 0.458586
vt 1.000000 0.291414
vt 1.000000 0.541414
vt 1.000000 0.708586
vt 1.000000 0.541414
vt 0.900000 0.250000
vt 0.900000 0.500000
vt 0.100000 0.750000
vt 0.100000 0.500000
vt 0.200000 0.750000
vt 0.200000 0.500000
vt 0.300000 0.750000
vt 0.300000 0.500000
vt 0.400000 0.750000
vt 0.400000 0.500000
vt 0.500000 0.750000
vt 0.500000 0.500000
vt 0.600000 0.750000
vt 0.600000 0.500000
vt 0.700000 0.750000
vt 0.700000 0.500000
vt 0.800000 0.750000
vt 0.800000 0.500000
vt 0.100000 0.250000
vt 0.200000 0.250000
vt 0.300000 0.250000
vt 0.400000 0.250000
vt 0.500000 0.250000
vt 0.600000 0.250000
vt 0.700000 0.250000
vt 0.800000 0.250000
vt 0.200000 0.000000
vt 0.300000 0.000000
vt 0.400000 0.000000
vt 0.500000 0.000000
vt 0.600000 0.000000
vt 0.700000 0.000000
vt 0.800000 0.000000
vt 0.100000 0.750000
vt 0.200000 0.750000
vt 0.300000 0.500000
vt 0.400000 0.500000
vt 0.400000 0.750000
vt 0.500000 0.500000
vt 0.600000 0.500000
vt 0.600000 0.750000
vt 0.700000 0.500000
vt 0.700000 0.750000
vt 0.800000 0.500000
vt 0.800000 0.750000
vt 0.100000 0.250000
vt 0.200000 0.250000
vt 0.300000 0.250000
vt 0.400000 0.250000
vt 0.500000 0.250000
vt 0.600000 0.250000
vt 0.700000 0.250000
vt 0.800000 0.250000
vt 0.400000 0.000000
vt 0.800000 1.000000
vt 0.700000 1.000000
vt 0.700000 1.000000
vt 0.600000 1.000000
vt 0.500000 1.000000
vt 0.400000 1.000000
vt 0.300000 1.000000
vt 0.200000 1.000000
vt 0.700000 0.000000
vt 0.100000 0.000000
vt 0.300000 0.000000
vt 0.400000 0.000000
vt 0.700000 0.000000
vt 0.800000 0.000000
vt 0.700000 1.000000
vt 0.700000 1.000000
vt 0.600000 1.000000
vt 0.600000 1.000000
vt 0.400000 1.000000
vt 0.400000 1.000000
vt 0.300000 1.000000
vt 0.200000 1.000000
vt 0.400000 0.000000
vt 0.600000 1.000000
vt 0.400000 1.000000
vt 0.800000 1.000000
vt 0.180455 0.000000
vt 0.680455 0.000000
vt 0.680455 0.000000
vt 0.119545 0.000000
vt 0.119545 0.000000
vt 0.619545 0.000000
vt 0.619545 0.000000
vt 0.980455 0.000000
vt 0.919545 0.000000
vt 0.480455 0.000000
vt 0.419545 0.000000
vt 0.979284 1.000000
vt 0.920717 1.000000
vt 0.920717 1.000000
vt 0.979283 1.000000
vt 0.879284 1.000000
vt 0.820717 1.000000
vt 0.820717 1.000000
vt 0.879283 1.000000
vt 0.779284 1.000000
vt 0.720717 1.000000
vt 0.720717 1.000000
vt 0.779284 1.000000
vt 0.679284 1.000000
vt 0.620717 1.000000
vt 0.620717 1.000000
vt 0.679284 1.000000
vt 0.579284 1.000000
vt 0.520717 1.000000
vt 0.579284 1.000000
vt 0.479284 1.000000
vt 0.420717 1.000000
vt 0.379284 1.000000
vt 0.320717 1.000000
vt 0.320717 1.000000
vt 0.379284 1.000000
vt 0.279284 1.000000
vt 0.220717 1.000000
vt 0.220717 1.000000
vt 0.179283 1.000000
vt 0.120717 1.000000
vt 0.179283 1.000000
vt 0.919545 0.000000
vt 0.080455 0.000000
vt 0.019545 0.000000
vt 0.280455 0.000000
vt 0.219545 0.000000
vt 0.219545 0.000000
vt 0.380455 0.000000
vt 0.319545 0.000000
vt 0.380455 0.000000
vt 0.319545 0.000000
vt 0.580455 0.000000
vt 0.519545 0.000000
vt 0.580455 0.000000
vt 0.519545 0.000000
vt 0.780455 0.000000
vt 0.719545 0.000000
vt 0.780455 0.000000
s 0
usemtl Medic_1
f 286/37/7 134/38/7 52/39/7 78/40/7
f 161/41/8 58/42/8 66/42/8 197/43/8
f 323/54/8 324/55/8 363/55/8 364/54/8
f 251/56/8 90/40/8 60/39/8 170/38/8
f 81/57/7 54/42/7 62/42/7 93/57/7
f 170/38/8 60/39/8 68/39/8 206/58/8
f 84/40/7 56/39/7 64/39/7 96/40/7
f 96/40/9 64/39/9 68/39/9 102/40/9
f 93/57/10 62/42/10 66/42/10 99/57/10
f 196/59/11 61/60/11 65/60/11 214/59/11
f 187/61/12 63/62/12 67/62/12 205/61/12
f 160/59/7 53/60/7 61/60/7 196/59/7
f 151/61/7 55/62/7 63/62/7 187/61/7
f 88/63/8 59/62/8 67/62/8 100/63/8
f 85/64/8 57/60/8 65/60/8 97/64/8
f 133/61/12 50/62/12 70/62/12 215/61/12
f 142/59/11 51/60/11 72/60/11 224/59/11
f 75/65/10 49/42/10 71/42/10 103/57/10
f 78/40/9 52/39/9 69/39/9 106/40/9
f 50/62/9 76/63/9 108/66/9 70/62/9
f 76/63/9 77/67/9 107/68/9 108/66/9
f 77/67/9 78/40/9 106/40/9 107/68/9
f 51/60/10 73/64/10 105/64/10 72/60/10
f 73/64/10 74/69/10 104/70/10 105/64/10
f 74/69/10 75/65/10 103/57/10 104/70/10
f 58/42/8 87/57/8 99/57/8 66/42/8
f 87/57/8 86/69/8 98/69/8 99/57/8
f 86/69/8 85/64/8 97/64/8 98/69/8
f 60/39/8 90/40/8 102/40/8 68/39/8
f 90/40/8 89/67/8 101/67/8 102/40/8
f 89/67/8 88/63/8 100/63/8 101/67/8
f 61/60/10 91/64/10 97/64/10 65/60/10
f 91/64/10 92/69/10 98/69/10 97/64/10
f 92/69/10 93/57/10 99/57/10 98/69/10
f 63/62/9 94/63/9 100/63/9 67/62/9
f 94/63/9 95/67/9 101/67/9 100/63/9
f 95/67/9 96/40/9 102/40/9 101/67/9
f 55/62/7 82/63/7 94/63/7 63/62/7
f 82/63/7 83/67/7 95/67/7 94/63/7
f 83/67/7 84/40/7 96/40/7 95/67/7
f 53/60/7 79/64/7 91/64/7 61/60/7
f 79/64/7 80/69/7 92/69/7 91/64/7
f 80/69/7 81/57/7 93/57/7 92/69/7
f 169/61/8 59/62/8 88/63/8 233/71/8
f 233/71/8 88/63/8 89/67/8 242/72/8
f 242/72/8 89/67/8 90/40/8 251/56/8
f 375/76/10 376/77/10 377/77/10 378/78/10
f 121/90/9 122/91/9 123/91/9 124/92/9
f 133/61/7 268/93/7 76/63/7 50/62/7
f 268/93/7 277/94/7 77/67/7 76/63/7
f 277/94/7 286/37/7 78/40/7 77/67/7
f 106/40/9 69/39/9 110/45/9 109/44/9
f 69/39/9 56/39/9 111/45/9 110/45/9
f 56/39/9 84/40/9 112/46/9 111/45/9
f 84/40/9 106/40/9 109/44/9 112/46/9
f 70/62/9 108/66/9 114/83/9 113/82/9
f 108/66/9 82/63/9 115/84/9 114/83/9
f 82/63/9 55/62/9 116/85/9 115/84/9
f 55/62/9 70/62/9 113/82/9 116/85/9
f 108/66/9 107/68/9 118/87/9 117/86/9
f 107/68/9 83/67/9 119/88/9 118/87/9
f 83/67/9 82/63/9 120/89/9 119/88/9
f 82/63/9 108/66/9 117/86/9 120/89/9
f 107/68/9 106/40/9 122/91/9 121/90/9
f 106/40/9 84/40/9 123/91/9 122/91/9
f 84/40/9 83/67/9 124/92/9 123/91/9
f 83/67/9 107/68/9 121/90/9 124/92/9
f 74/69/7 73/64/7 278/95/7 269/96/7
f 269/96/7 278/95/7 279/97/7 270/98/7
f 270/98/7 279/97/7 280/99/7 271/100/7
f 271/100/7 280/99/7 281/101/7 272/102/7
f 272/102/7 281/101/7 282/103/7 273/104/7
f 273/104/7 282/103/7 283/105/7 274/106/7
f 274/106/7 283/105/7 284/107/7 275/108/7
f 275/108/7 284/107/7 285/109/7 276/110/7
f 276/110/7 285/109/7 286/37/7 277/94/7
f 75/65/7 74/69/7 269/96/7 260/111/7
f 260/111/7 269/96/7 270/98/7 261/112/7
f 261/112/7 270/98/7 271/100/7 262/113/7
f 262/113/7 271/100/7 272/102/7 263/114/7
f 263/114/7 272/102/7 273/104/7 264/115/7
f 264/115/7 273/104/7 274/106/7 265/116/7
f 265/116/7 274/106/7 275/108/7 266/117/7
f 266/117/7 275/108/7 276/110/7 267/118/7
f 267/118/7 276/110/7 277/94/7 268/93/7
f 49/42/7 75/65/7 260/111/7 125/41/7
f 125/41/7 260/111/7 261/112/7 126/119/7
f 126/119/7 261/112/7 262/113/7 127/120/7
f 127/120/7 262/113/7 263/114/7 128/121/7
f 128/121/7 263/114/7 264/115/7 129/122/7
f 129/122/7 264/115/7 265/116/7 130/123/7
f 130/123/7 265/116/7 266/117/7 131/124/7
f 131/124/7 266/117/7 267/118/7 132/125/7
f 132/125/7 267/118/7 268/93/7 133/61/7
f 86/69/8 250/96/8 259/126/8 85/64/8
f 250/96/8 249/98/8 258/127/8 259/126/8
f 249/98/8 248/128/8 257/99/8 258/127/8
f 248/128/8 247/129/8 256/130/8 257/99/8
f 247/129/8 246/131/8 255/103/8 256/130/8
f 246/131/8 245/132/8 254/133/8 255/103/8
f 245/132/8 244/134/8 253/135/8 254/133/8
f 244/134/8 243/136/8 252/137/8 253/135/8
f 243/136/8 242/72/8 251/56/8 252/137/8
f 87/57/8 241/138/8 250/96/8 86/69/8
f 241/138/8 240/139/8 249/98/8 250/96/8
f 240/139/8 239/140/8 248/128/8 249/98/8
f 239/140/8 238/141/8 247/129/8 248/128/8
f 238/141/8 237/142/8 246/131/8 247/129/8
f 237/142/8 236/143/8 245/132/8 246/131/8
f 236/143/8 235/144/8 244/134/8 245/132/8
f 235/144/8 234/145/8 243/136/8 244/134/8
f 234/145/8 233/71/8 242/72/8 243/136/8
f 58/42/8 161/41/8 241/138/8 87/57/8
f 161/41/8 162/119/8 240/139/8 241/138/8
f 162/119/8 163/120/8 239/140/8 240/139/8
f 163/120/8 164/146/8 238/141/8 239/140/8
f 164/146/8 165/122/8 237/142/8 238/141/8
f 165/122/8 166/123/8 236/143/8 237/142/8
f 166/123/8 167/124/8 235/144/8 236/143/8
f 167/124/8 168/125/8 234/145/8 235/144/8
f 168/125/8 169/61/8 233/71/8 234/145/8
f 52/39/11 134/38/11 232/38/11 69/39/11
f 134/38/11 135/147/11 231/147/11 232/38/11
f 135/147/11 136/148/11 230/149/11 231/147/11
f 136/148/11 137/150/11 229/150/11 230/149/11
f 137/150/11 138/151/11 228/151/11 229/150/11
f 138/151/11 139/152/11 227/152/11 228/151/11
f 139/152/11 140/153/11 226/153/11 227/152/11
f 140/153/11 141/154/11 225/154/11 226/153/11
f 141/154/11 142/59/11 224/59/11 225/154/11
f 49/42/12 125/41/12 223/41/12 71/42/12
f 125/41/12 126/119/12 222/119/12 223/41/12
f 126/119/12 127/120/12 221/120/12 222/119/12
f 127/120/12 128/121/12 220/121/12 221/120/12
f 128/121/12 129/122/12 219/122/12 220/121/12
f 129/122/12 130/123/12 218/123/12 219/122/12
f 130/123/12 131/124/12 217/155/12 218/123/12
f 131/124/12 132/125/12 216/125/12 217/155/12
f 132/125/12 133/61/12 215/61/12 216/125/12
f 54/42/7 143/41/7 179/156/7 62/42/7
f 143/41/7 144/119/7 180/119/7 179/156/7
f 144/119/7 145/157/7 181/120/7 180/119/7
f 145/157/7 146/146/7 182/158/7 181/120/7
f 146/146/7 147/122/7 183/122/7 182/158/7
f 147/122/7 148/123/7 184/123/7 183/122/7
f 148/123/7 149/124/7 185/159/7 184/123/7
f 149/124/7 150/160/7 186/125/7 185/159/7
f 150/160/7 151/61/7 187/61/7 186/125/7
f 56/39/7 152/38/7 188/38/7 64/39/7
f 152/38/7 153/147/7 189/147/7 188/38/7
f 153/147/7 154/161/7 190/162/7 189/147/7
f 154/161/7 155/163/7 191/164/7 190/162/7
f 155/163/7 156/151/7 192/151/7 191/164/7
f 156/151/7 157/165/7 193/166/7 192/151/7
f 157/165/7 158/167/7 194/167/7 193/166/7
f 158/167/7 159/168/7 195/154/7 194/167/7
f 159/168/7 160/59/7 196/59/7 195/154/7
f 62/42/12 179/156/12 197/43/12 66/42/12
f 179/156/12 180/119/12 198/119/12 197/43/12
f 180/119/12 181/120/12 199/120/12 198/119/12
f 181/120/12 182/158/12 200/169/12 199/120/12
f 182/158/12 183/122/12 201/122/12 200/169/12
f 183/122/12 184/123/12 202/123/12 201/122/12
f 184/123/12 185/159/12 203/159/12 202/123/12
f 185/159/12 186/125/12 204/125/12 203/159/12
f 186/125/12 187/61/12 205/61/12 204/125/12
f 64/39/11 188/38/11 206/58/11 68/39/11
f 188/38/11 189/147/11 207/147/11 206/58/11
f 189/147/11 190/162/11 208/162/11 207/147/11
f 190/162/11 191/164/11 209/170/11 208/162/11
f 191/164/11 192/151/11 210/151/11 209/170/11
f 192/151/11 193/166/11 211/166/11 210/151/11
f 193/166/11 194/167/11 212/167/11 211/166/11
f 194/167/11 195/154/11 213/154/11 212/167/11
f 195/154/11 196/59/11 214/59/11 213/154/11
f 57/60/8 178/59/8 214/59/8 65/60/8
f 178/59/8 177/154/8 213/154/8 214/59/8
f 177/154/8 176/167/8 212/167/8 213/154/8
f 176/167/8 175/171/8 211/166/8 212/167/8
f 175/171/8 174/151/8 210/151/8 211/166/8
f 174/151/8 173/164/8 209/170/8 210/151/8
f 173/164/8 172/162/8 208/162/8 209/170/8
f 172/162/8 171/172/8 207/147/8 208/162/8
f 171/172/8 170/38/8 206/58/8 207/147/8
f 85/64/8 259/126/8 178/59/8 57/60/8
f 259/126/8 258/127/8 177/154/8 178/59/8
f 258/127/8 257/99/8 176/167/8 177/154/8
f 257/99/8 256/130/8 175/171/8 176/167/8
f 256/130/8 255/103/8 174/151/8 175/171/8
f 255/103/8 254/133/8 173/164/8 174/151/8
f 254/133/8 253/135/8 172/162/8 173/164/8
f 253/135/8 252/137/8 171/172/8 172/162/8
f 252/137/8 251/56/8 170/38/8 171/172/8
f 296/173/10 297/173/10 338/173/10 335/173/10
f 316/174/10 317/175/10 358/175/10 355/174/10
f 298/176/9 295/177/9 336/177/9 337/176/9
f 318/178/9 315/179/9 356/179/9 357/178/9
f 289/180/7 290/181/7 329/181/7 330/180/7
f 309/182/7 310/183/7 349/183/7 350/182/7
f 295/177/8 296/173/8 335/173/8 336/177/8
f 315/179/8 316/174/8 355/174/8 356/179/8
f 288/180/10 289/180/10 330/180/10 327/180/10
f 391/188/11 392/189/11 393/190/11 394/191/11
f 399/196/11 400/197/11 401/198/11 402/199/11
f 411/205/11 412/206/11 413/207/11 414/208/11
f 419/212/11 420/213/11 421/213/11 422/214/11
f 59/62/8 169/61/8 205/61/8 67/62/8
f 169/61/8 168/125/8 204/125/8 205/61/8
f 168/125/8 167/124/8 203/159/8 204/125/8
f 167/124/8 166/123/8 202/123/8 203/159/8
f 166/123/8 165/122/8 201/122/8 202/123/8
f 165/122/8 164/146/8 200/169/8 201/122/8
f 164/146/8 163/120/8 199/120/8 200/169/8
f 163/120/8 162/119/8 198/119/8 199/120/8
f 162/119/8 161/41/8 197/43/8 198/119/8
f 73/64/7 51/60/7 142/59/7 278/95/7
f 278/95/7 142/59/7 141/154/7 279/97/7
f 279/97/7 141/154/7 140/153/7 280/99/7
f 280/99/7 140/153/7 139/152/7 281/101/7
f 281/101/7 139/152/7 138/151/7 282/103/7
f 282/103/7 138/151/7 137/150/7 283/105/7
f 283/105/7 137/150/7 136/148/7 284/107/7
f 284/107/7 136/148/7 135/147/7 285/109/7
f 285/109/7 135/147/7 134/38/7 286/37/7
f 215/61/12 70/62/12 288/180/12 287/215/12
f 70/62/12 55/62/12 289/180/12 288/180/12
f 55/62/12 151/61/12 290/181/12 289/180/12
f 151/61/12 215/61/12 287/215/12 290/181/12
f 71/42/12 223/41/12 292/216/12 291/217/12
f 223/41/12 143/41/12 293/216/12 292/216/12
f 143/41/12 54/42/12 294/217/12 293/216/12
f 54/42/12 71/42/12 291/217/12 294/217/12
f 223/41/12 222/119/12 296/173/12 295/177/12
f 222/119/12 144/119/12 297/173/12 296/173/12
f 144/119/12 143/41/12 298/176/12 297/173/12
f 143/41/12 223/41/12 295/177/12 298/176/12
f 222/119/12 221/120/12 300/218/12 299/219/12
f 221/120/12 145/157/12 301/218/12 300/218/12
f 145/157/12 144/119/12 302/220/12 301/218/12
f 144/119/12 222/119/12 299/219/12 302/220/12
f 221/120/12 220/121/12 304/221/12 303/222/12
f 220/121/12 146/146/12 305/223/12 304/221/12
f 146/146/12 145/157/12 306/224/12 305/223/12
f 145/157/12 221/120/12 303/222/12 306/224/12
f 220/121/12 219/122/12 308/182/12 307/183/12
f 219/122/12 147/122/12 309/182/12 308/182/12
f 147/122/12 146/146/12 310/183/12 309/182/12
f 146/146/12 220/121/12 307/183/12 310/183/12
f 219/122/12 218/123/12 312/225/12 311/226/12
f 218/123/12 148/123/12 313/227/12 312/225/12
f 148/123/12 147/122/12 314/228/12 313/227/12
f 147/122/12 219/122/12 311/226/12 314/228/12
f 218/123/12 217/155/12 316/174/12 315/179/12
f 217/155/12 149/124/12 317/175/12 316/174/12
f 149/124/12 148/123/12 318/178/12 317/175/12
f 148/123/12 218/123/12 315/179/12 318/178/12
f 217/155/12 216/125/12 320/229/12 319/230/12
f 216/125/12 150/160/12 321/231/12 320/229/12
f 150/160/12 149/124/12 322/230/12 321/231/12
f 149/124/12 217/155/12 319/230/12 322/230/12
f 216/125/12 215/61/12 324/55/12 323/54/12
f 215/61/12 151/61/12 325/55/12 324/55/12
f 151/61/12 150/160/12 326/54/12 325/55/12
f 150/160/12 216/125/12 323/54/12 326/54/12
f 336/177/12 335/173/12 338/173/12 337/176/12
f 344/222/12 343/221/12 346/223/12 345/224/12
f 352/226/12 351/225/12 354/227/12 353/228/12
f 360/230/12 359/229/12 362/231/12 361/230/12
f 303/222/8 304/221/8 343/221/8 344/222/8
f 317/175/7 318/178/7 357/178/7 358/175/7
f 297/173/7 298/176/7 337/176/7 338/173/7
f 326/54/9 323/54/9 364/54/9 365/54/9
f 306/224/9 303/222/9 344/222/9 345/224/9
f 324/55/10 325/55/10 366/55/10 363/55/10
f 304/221/10 305/223/10 346/223/10 343/221/10
f 311/226/8 312/225/8 351/225/8 352/226/8
f 325/55/7 326/54/7 365/54/7 366/55/7
f 291/217/8 292/216/8 331/216/8 332/217/8
f 305/223/7 306/224/7 345/224/7 346/223/7
f 314/228/9 311/226/9 352/226/9 353/228/9
f 294/217/9 291/217/9 332/217/9 333/217/9
f 312/225/10 313/227/10 354/227/10 351/225/10
f 292/216/10 293/216/10 334/216/10 331/216/10
f 319/230/8 320/229/8 359/229/8 360/230/8
f 299/219/8 300/218/8 339/218/8 340/219/8
f 313/227/7 314/228/7 353/228/7 354/227/7
f 293/216/7 294/217/7 333/217/7 334/216/7
f 322/230/9 319/230/9 360/230/9 361/230/9
f 302/220/9 299/219/9 340/219/9 341/220/9
f 320/229/10 321/231/10 362/231/10 359/229/10
f 300/218/10 301/218/10 342/218/10 339/218/10
f 307/183/8 308/182/8 347/182/8 348/183/8
f 321/231/7 322/230/7 361/230/7 362/231/7
f 287/215/8 288/180/8 327/180/8 328/215/8
f 301/218/7 302/220/7 341/220/7 342/218/7
f 310/183/9 307/183/9 348/183/9 349/183/9
f 290/181/9 287/215/9 328/215/9 329/181/9
f 308/182/10 309/182/10 350/182/10 347/182/10
f 103/57/10 71/42/10 368/48/10 367/47/10
f 71/42/10 54/42/10 369/49/10 368/48/10
f 54/42/10 81/57/10 370/47/10 369/49/10
f 81/57/10 103/57/10 367/47/10 370/47/10
f 72/60/10 105/64/10 372/74/10 371/73/10
f 105/64/10 79/64/10 373/75/10 372/74/10
f 79/64/10 53/60/10 374/73/10 373/75/10
f 53/60/10 72/60/10 371/73/10 374/73/10
f 105/64/10 104/70/10 376/77/10 375/76/10
f 104/70/10 80/69/10 377/77/10 376/77/10
f 80/69/10 79/64/10 378/78/10 377/77/10
f 79/64/10 105/64/10 375/76/10 378/78/10
f 104/70/10 103/57/10 380/80/10 379/79/10
f 103/57/10 81/57/10 381/80/10 380/80/10
f 81/57/10 80/69/10 382/81/10 381/80/10
f 80/69/10 104/70/10 379/79/10 382/81/10
f 224/59/11 72/60/11 384/51/11 383/50/11
f 72/60/11 53/60/11 385/52/11 384/51/11
f 53/60/11 160/59/11 386/53/11 385/52/11
f 160/59/11 224/59/11 383/50/11 386/53/11
f 69/39/11 232/38/11 388/185/11 387/184/11
f 232/38/11 152/38/11 389/186/11 388/185/11
f 152/38/11 56/39/11 390/187/11 389/186/11
f 56/39/11 69/39/11 387/184/11 390/187/11
f 232/38/11 231/147/11 392/189/11 391/188/11
f 231/147/11 153/147/11 393/190/11 392/189/11
f 153/147/11 152/38/11 394/191/11 393/190/11
f 152/38/11 232/38/11 391/188/11 394/191/11
f 231/147/11 230/149/11 396/193/11 395/192/11
f 230/149/11 154/161/11 397/194/11 396/193/11
f 154/161/11 153/147/11 398/195/11 397/194/11
f 153/147/11 231/147/11 395/192/11 398/195/11
f 230/149/11 229/150/11 400/197/11 399/196/11
f 229/150/11 155/163/11 401/198/11 400/197/11
f 155/163/11 154/161/11 402/199/11 401/198/11
f 154/161/11 230/149/11 399/196/11 402/199/11
f 229/150/11 228/151/11 404/201/11 403/200/11
f 228/151/11 156/151/11 405/201/11 404/201/11
f 156/151/11 155/163/11 406/202/11 405/201/11
f 155/163/11 229/150/11 403/200/11 406/202/11
f 228/151/11 227/152/11 408/204/11 407/203/11
f 227/152/11 157/165/11 409/204/11 408/204/11
f 157/165/11 156/151/11 410/203/11 409/204/11
f 156/151/11 228/151/11 407/203/11 410/203/11
f 227/152/11 226/153/11 412/206/11 411/205/11
f 226/153/11 158/167/11 413/207/11 412/206/11
f 158/167/11 157/165/11 414/208/11 413/207/11
f 157/165/11 227/152/11 411/205/11 414/208/11
f 226/153/11 225/154/11 416/210/11 415/209/11
f 225/154/11 159/168/11 417/211/11 416/210/11
f 159/168/11 158/167/11 418/209/11 417/211/11
f 158/167/11 226/153/11 415/209/11 418/209/11
f 225/154/11 224/59/11 420/213/11 419/212/11
f 224/59/11 160/59/11 421/213/11 420/213/11
f 160/59/11 159/168/11 422/214/11 421/213/11
f 159/168/11 225/154/11 419/212/11 422/214/11
usemtl Medic_1_windows
f 109/44/9 110/45/9 111/45/9 112/46/9
f 367/47/10 368/48/10 369/49/10 370/47/10
f 383/50/11 384/51/11 385/52/11 386/53/11
f 371/73/10 372/74/10 373/75/10 374/73/10
f 379/79/10 380/80/10 381/80/10 382/81/10
f 113/82/9 114/83/9 115/84/9 116/85/9
f 117/86/9 118/87/9 119/88/9 120/89/9
f 387/184/11 388/185/11 389/186/11 390/187/11
f 395/192/11 396/193/11 397/194/11 398/195/11
f 403/200/11 404/201/11 405/201/11 406/202/11
f 407/203/11 408/204/11 409/204/11 410/203/11
f 415/209/11 416/210/11 417/211/11 418/209/11
f 328/215/12 327/180/12 330/180/12 329/181/12
f 332/217/12 331/216/12 334/216/12 333/217/12
f 340/219/12 339/218/12 342/218/12 341/220/12
f 348/183/12 347/182/12 350/182/12 349/183/12
f 356/179/12 355/174/12 358/175/12 357/178/12
f 364/54/12 363/55/12 366/55/12 365/54/12
