# Blender 4.0.2
# www.blender.org
mtllib Pond.mtl
o Cylinder.001
v -44.571369 0.022035 45.054523
v -44.571369 0.964758 45.054523
v -42.841782 0.022035 45.190044
v -42.841782 0.964758 45.190044
v -41.178665 0.022035 45.591396
v -41.178665 0.964758 45.591396
v -39.645927 0.022035 46.243153
v -39.645927 0.964758 46.243153
v -38.302467 0.022035 47.120270
v -38.302467 0.964758 47.120270
v -37.199921 0.022035 48.189045
v -37.199921 0.964758 48.189045
v -36.380657 0.022035 49.408398
v -36.380657 0.964758 49.408398
v -35.876156 0.022035 50.731472
v -35.876156 0.964758 50.731472
v -35.705807 0.022035 52.107426
v -35.705807 0.964758 52.107426
v -35.876156 0.022035 53.483379
v -35.876156 0.964758 53.483379
v -36.380657 0.022035 54.806454
v -36.380657 0.964758 54.806454
v -37.199921 0.022035 56.025806
v -37.199921 0.964758 56.025806
v -38.302467 0.022035 57.094582
v -38.302467 0.964758 57.094582
v -39.645927 0.022035 57.971699
v -39.645927 0.964758 57.971699
v -41.178665 0.022035 58.623455
v -41.178665 0.964758 58.623455
v -42.841782 0.022035 59.024807
v -42.841782 0.964758 59.024807
v -44.571369 0.022035 59.160328
v -44.571369 0.964758 59.160328
v -46.300957 0.022035 59.024807
v -47.964073 0.022035 58.623455
v -49.496811 0.022035 57.971699
v -50.840271 0.022035 57.094582
v -51.942818 0.022035 56.025806
v -52.762081 0.022035 54.806454
v -53.266582 0.022035 53.483379
v -53.436932 0.022035 52.107426
v -53.266582 0.022035 50.731472
v -52.762081 0.022035 49.408398
v -51.942818 0.022035 48.189045
v -50.840271 0.022035 47.120270
v -50.840271 0.964758 47.120270
v -49.496811 0.022035 46.243153
v -49.496811 0.964758 46.243153
v -47.964073 0.022035 45.591396
v -47.964073 0.964758 45.591396
v -46.300957 0.022035 45.190044
v -46.300957 0.964758 45.190044
v -57.678600 0.022035 45.028046
v -57.678600 0.964758 45.028046
v -55.949017 0.022035 45.163567
v -55.949017 0.964758 45.163567
v -54.285896 0.022035 45.564919
v -54.285896 0.964758 45.564919
v -52.753159 0.022035 46.216675
v -52.753159 0.964758 46.216675
v -51.409698 0.022035 47.093796
v -51.409698 0.964758 47.093796
v -50.307152 0.022035 48.162567
v -49.487888 0.022035 49.381920
v -48.983387 0.022035 50.704994
v -48.813034 0.022035 52.080948
v -48.983387 0.022035 53.456902
v -49.487888 0.022035 54.779976
v -50.307152 0.022035 55.999329
v -51.409698 0.022035 57.068104
v -52.753159 0.022035 57.945221
v -54.285896 0.022035 58.596977
v -55.949017 0.022035 58.998329
v -57.678600 0.022035 59.133850
v -57.678600 0.964758 59.133850
v -59.408188 0.022035 58.998329
v -59.408188 0.964758 58.998329
v -61.071304 0.022035 58.596977
v -61.071304 0.964758 58.596977
v -62.604042 0.022035 57.945221
v -62.604042 0.964758 57.945221
v -63.947502 0.022035 57.068104
v -63.947502 0.964758 57.068104
v -65.050049 0.022035 55.999329
v -65.050049 0.964758 55.999329
v -65.869316 0.022035 54.779976
v -65.869316 0.964758 54.779976
v -66.373817 0.022035 53.456902
v -66.373817 0.964758 53.456902
v -66.544167 0.022035 52.080948
v -66.544167 0.964758 52.080948
v -66.373817 0.022035 50.704994
v -66.373817 0.964758 50.704994
v -65.869316 0.022035 49.381920
v -65.869316 0.964758 49.381920
v -65.050049 0.022035 48.162567
v -65.050049 0.964758 48.162567
v -63.947502 0.022035 47.093796
v -63.947502 0.964758 47.093796
v -62.604042 0.022035 46.216675
v -62.604042 0.964758 46.216675
v -61.071304 0.022035 45.564919
v -61.071304 0.964758 45.564919
v -59.408188 0.022035 45.163567
v -59.408188 0.964758 45.163567
v -42.841782 0.136520 45.190044
v -44.571369 0.136520 45.054523
v -41.178665 0.136520 45.591396
v -39.645927 0.136520 46.243153
v -38.302467 0.136520 47.120270
v -37.199921 0.136520 48.189045
v -36.380657 0.136520 49.408398
v -35.876156 0.136520 50.731472
v -35.705807 0.136520 52.107426
v -35.876156 0.136520 53.483379
v -36.380657 0.136520 54.806454
v -37.199921 0.136520 56.025806
v -38.302467 0.136520 57.094582
v -39.645927 0.136520 57.971699
v -41.178665 0.136520 58.623455
v -42.841782 0.136520 59.024807
v -44.571369 0.136520 59.160328
v -46.300957 0.136520 59.024807
v -47.964073 0.136520 58.623455
v -49.496811 0.136520 57.971699
v -50.840271 0.136520 57.094582
v -51.942818 0.136520 56.025806
v -52.762081 0.136520 54.806454
v -53.266582 0.136520 53.483379
v -53.436932 0.136520 52.107426
v -53.266582 0.136520 50.731472
v -52.762081 0.136520 49.408398
v -51.942818 0.136520 48.189045
v -50.840271 0.136520 47.120270
v -49.496811 0.136520 46.243153
v -47.964073 0.136520 45.591396
v -46.300957 0.136520 45.190044
v -55.949017 0.136520 45.163567
v -57.678600 0.136520 45.028046
v -54.285896 0.136520 45.564919
v -52.753159 0.136520 46.216675
v -51.409698 0.136520 47.093796
v -50.307152 0.136520 48.162567
v -49.487888 0.136520 49.381920
v -48.983387 0.136520 50.704994
v -48.813034 0.136520 52.080948
v -48.983387 0.136520 53.456902
v -49.487888 0.136520 54.779976
v -50.307152 0.136520 55.999329
v -51.409698 0.136520 57.068104
v -52.753159 0.136520 57.945221
v -54.285896 0.136520 58.596977
v -55.949017 0.136520 58.998329
v -57.678600 0.136520 59.133850
v -59.408188 0.136520 58.998329
v -61.071304 0.136520 58.596977
v -62.604042 0.136520 57.945221
v -63.947502 0.136520 57.068104
v -65.050049 0.136520 55.999329
v -65.869316 0.136520 54.779976
v -66.373817 0.136520 53.456902
v -66.544167 0.136520 52.080948
v -66.373817 0.136520 50.704994
v -65.869316 0.136520 49.381920
v -65.050049 0.136520 48.162567
v -63.947502 0.136520 47.093796
v -62.604042 0.136520 46.216675
v -61.071304 0.136520 45.564919
v -59.408188 0.136520 45.163567
v -50.853054 0.964758 47.395241
v -51.422485 0.964758 47.368763
v -51.422485 0.136520 47.368763
v -50.853054 0.136520 47.395241
v -42.842068 0.411976 45.196171
v -44.571655 0.411976 45.060650
v -41.178951 0.411976 45.597519
v -39.646210 0.411976 46.249279
v -38.302753 0.411976 47.126396
v -37.200207 0.411976 48.195168
v -36.380943 0.411976 49.414524
v -35.876442 0.411976 50.737598
v -35.706093 0.411976 52.113552
v -35.876442 0.411976 53.489506
v -36.380943 0.411976 54.812580
v -37.200207 0.411976 56.031933
v -38.302753 0.411976 57.100704
v -39.646210 0.411976 57.977825
v -41.178951 0.411976 58.629581
v -42.842068 0.411976 59.030933
v -44.571655 0.411976 59.166454
v -46.301239 0.411976 59.030933
v -47.964359 0.411976 58.629581
v -49.497097 0.411976 57.977825
v -50.840553 0.411976 57.100704
v -51.943100 0.411976 56.031933
v -52.762367 0.411976 54.812580
v -53.266869 0.411976 53.489506
v -53.437218 0.411976 52.113552
v -53.266869 0.411976 50.737598
v -52.762367 0.411976 49.414524
v -51.943100 0.411976 48.195168
v -50.840553 0.411976 47.126396
v -49.497097 0.411976 46.249279
v -47.964359 0.411976 45.597519
v -46.301239 0.411976 45.196171
v -55.949303 0.411976 45.169693
v -57.678886 0.411976 45.034172
v -54.286182 0.411976 45.571045
v -52.753441 0.411976 46.222801
v -51.409985 0.411976 47.099918
v -50.307438 0.411976 48.168694
v -49.488171 0.411976 49.388046
v -48.983669 0.411976 50.711121
v -48.813320 0.411976 52.087074
v -48.983669 0.411976 53.463028
v -49.488171 0.411976 54.786102
v -50.307438 0.411976 56.005455
v -51.409985 0.411976 57.074226
v -52.753441 0.411976 57.951347
v -54.286182 0.411976 58.603104
v -55.949303 0.411976 59.004456
v -57.678886 0.411976 59.139977
v -59.408470 0.411976 59.004456
v -61.071590 0.411976 58.603104
v -62.604332 0.411976 57.951347
v -63.947784 0.411976 57.074226
v -65.050331 0.411976 56.005455
v -65.869598 0.411976 54.786102
v -66.374100 0.411976 53.463028
v -66.544449 0.411976 52.087074
v -66.374100 0.411976 50.711121
v -65.869598 0.411976 49.388046
v -65.050331 0.411976 48.168694
v -63.947784 0.411976 47.099918
v -62.604332 0.411976 46.222801
v -61.071590 0.411976 45.571045
v -59.408470 0.411976 45.169693
v -51.422771 0.411976 47.374889
v -50.853340 0.411976 47.401367
v -49.496811 0.964758 46.525295
v -50.840271 0.964758 47.402412
v -51.409698 0.964758 47.375935
v -52.753159 0.964758 46.498817
v -49.496811 0.136520 46.525295
v -50.840271 0.136520 47.402412
v -51.409698 0.136520 47.375935
v -52.753159 0.136520 46.498817
v -55.856056 0.964758 45.487564
v -57.585640 0.964758 45.352047
v -54.192936 0.964758 45.888916
v -54.192936 0.022035 45.888916
v -52.660198 0.022035 46.540672
v -52.660198 0.964758 46.540672
v -62.511086 0.964758 46.540672
v -63.854542 0.964758 47.417793
v -60.978348 0.964758 45.888916
v -60.978348 0.022035 45.888916
v -59.315228 0.022035 45.487564
v -59.315228 0.964758 45.487564
v -55.856056 0.136520 45.487564
v -57.585640 0.136520 45.352047
v -54.192936 0.136520 45.888916
v -62.511086 0.136520 46.540672
v -63.854542 0.136520 47.417793
v -60.978348 0.136520 45.888916
v -59.315228 0.136520 45.487564
v -63.732113 0.964758 47.315987
v -64.834663 0.964758 48.384758
v -63.732113 0.136520 47.315987
v -64.834663 0.136520 48.384758
v -64.792038 0.964758 48.335922
v -65.611298 0.964758 49.555275
v -64.792038 0.136520 48.335922
v -65.611298 0.136520 49.555275
v -66.063477 0.964758 50.782589
v -66.233826 0.964758 52.158543
v -65.558975 0.964758 49.459515
v -66.063477 0.136520 50.782589
v -66.233826 0.136520 52.158543
v -65.558975 0.136520 49.459515
v -65.552429 0.964758 54.659145
v -64.733162 0.964758 55.878498
v -66.056931 0.964758 53.336067
v -66.227280 0.964758 51.960117
v -65.552429 0.136520 54.659145
v -64.733162 0.136520 55.878498
v -66.056931 0.136520 53.336067
v -66.227280 0.136520 51.960117
v -62.505142 0.964758 57.563969
v -60.972404 0.964758 58.215725
v -63.848602 0.964758 56.686848
v -63.848602 0.022035 56.686848
v -64.951149 0.022035 55.618076
v -64.951149 0.964758 55.618076
v -62.505142 0.136520 57.563969
v -60.972404 0.136520 58.215725
v -63.848602 0.136520 56.686848
v -59.318085 0.022035 58.624973
v -60.981205 0.022035 58.223621
v -60.981205 0.964758 58.223621
v -59.318085 0.964758 58.624973
v -59.377293 0.964758 58.604046
v -57.647705 0.964758 58.739563
v -59.377293 0.136520 58.604046
v -57.647705 0.136520 58.739563
v -44.570557 0.964758 58.758083
v -57.677788 0.964758 58.731606
v -44.570557 0.136520 58.758083
v -57.677788 0.136520 58.731606
v -41.277443 0.964758 58.214146
v -39.744701 0.964758 57.562386
v -42.940559 0.964758 58.615494
v -44.670147 0.964758 58.751015
v -41.277443 0.136520 58.214146
v -39.744701 0.136520 57.562386
v -42.940559 0.136520 58.615494
v -44.670147 0.136520 58.751015
v -47.862854 0.964758 45.829437
v -49.395592 0.964758 46.481194
v -47.862854 0.136520 45.829437
v -49.395592 0.136520 46.481194
v -49.496811 0.406575 46.525295
v -49.496811 0.406575 46.243153
v -49.395592 0.406575 46.481194
v -49.496811 0.960869 46.525295
v -49.496811 0.960869 46.243153
v -49.395592 0.960869 46.481194
v -46.240616 0.964758 45.440071
v -47.903736 0.964758 45.841423
v -46.240616 0.136520 45.440071
v -47.903736 0.136520 45.841423
v -44.551533 0.964758 45.307709
v -46.281116 0.964758 45.443226
v -44.551533 0.136520 45.307709
v -46.281116 0.136520 45.443226
v -42.861469 0.964758 45.441269
v -44.591053 0.964758 45.305748
v -42.861469 0.136520 45.441269
v -44.591053 0.136520 45.305748
v -42.900513 0.964758 45.433399
v -42.900513 0.022035 45.433399
v -41.237392 0.022035 45.834751
v -41.237392 0.964758 45.834751
v -39.742905 0.964758 46.471214
v -41.275642 0.964758 45.819458
v -39.742905 0.136520 46.471214
v -41.275642 0.136520 45.819458
v -38.437050 0.964758 47.326408
v -39.780510 0.964758 46.449287
v -38.437050 0.136520 47.326408
v -39.780510 0.136520 46.449287
v -37.371223 0.964758 48.365757
v -38.473770 0.964758 47.296982
v -37.371223 0.136520 48.365757
v -38.473770 0.136520 47.296982
v -36.580147 0.964758 49.542431
v -37.399410 0.964758 48.323078
v -36.580147 0.136520 49.542431
v -37.399410 0.136520 48.323078
v -36.604294 0.964758 49.493671
v -36.604294 0.022035 49.493671
v -36.099792 0.022035 50.816750
v -36.099792 0.964758 50.816750
v -35.944172 0.964758 52.136936
v -36.114521 0.964758 50.760983
v -35.944172 0.136520 52.136936
v -36.114521 0.136520 50.760983
v -36.113445 0.964758 53.454002
v -35.943096 0.964758 52.078049
v -36.113445 0.136520 53.454002
v -35.943096 0.136520 52.078049
v -36.610210 0.964758 54.718922
v -36.105709 0.964758 53.395847
v -36.610210 0.136520 54.718922
v -36.105709 0.136520 53.395847
v -37.399155 0.964758 55.891949
v -36.579887 0.964758 54.672596
v -37.399155 0.136520 55.891949
v -36.579887 0.136520 54.672596
v -38.469376 0.964758 56.922401
v -37.366829 0.964758 55.853630
v -38.469376 0.136520 56.922401
v -37.366829 0.136520 55.853630
v -39.776798 0.964758 57.771248
v -38.433342 0.964758 56.894127
v -39.776798 0.136520 57.771248
v -38.433342 0.136520 56.894127
v -39.744701 0.327100 57.562386
v -38.469376 0.327100 56.922401
v -39.776798 0.327100 57.771248
vn 0.0781 -0.0000 -0.9969
vn -0.9721 -0.0000 -0.2346
vn 0.3913 -0.0000 -0.9203
vn 0.5467 -0.0000 -0.8373
vn 0.6960 -0.0000 -0.7180
vn 0.8300 -0.0000 -0.5577
vn -0.3563 -0.0000 -0.9344
vn 0.9924 -0.0000 -0.1229
vn 0.9924 -0.0000 0.1229
vn 0.9344 -0.0000 0.3563
vn 0.8300 -0.0000 0.5577
vn 0.6960 -0.0000 0.7180
vn 0.5467 -0.0000 0.8373
vn 0.3913 -0.0000 0.9203
vn 0.2346 -0.0000 0.9721
vn 0.0781 -0.0000 0.9969
vn -0.5467 -0.0000 -0.8373
vn -0.3913 -0.0000 -0.9203
vn -0.2346 -0.0000 -0.9721
vn -0.0781 -0.0000 -0.9969
vn -0.0000 -1.0000 -0.0000
vn 0.2346 -0.0000 -0.9721
vn -0.0000 1.0000 -0.0000
vn -0.8300 -0.0000 -0.5577
vn -0.6960 -0.0000 -0.7180
vn -0.0781 -0.0000 0.9969
vn -0.3913 -0.0000 0.9203
vn -0.5467 -0.0000 0.8373
vn -0.9680 -0.0000 -0.2511
vn -0.8300 -0.0000 0.5577
vn -0.9344 -0.0000 0.3563
vn -0.9924 -0.0000 0.1229
vn -0.9924 -0.0000 -0.1229
vn -0.9344 -0.0000 -0.3563
vn -0.0020 -0.0000 1.0000
vn -0.5466 0.0181 -0.8372
vn -0.0464 0.0111 0.9989
vn 0.9924 0.0038 -0.1229
vn 0.3563 -0.0000 -0.9344
vn -0.2346 -0.0000 0.9721
vn -0.9612 -0.0000 0.2758
vn -0.7180 -0.0000 0.6960
vn -0.8373 -0.0000 -0.5467
vn 0.5577 -0.0000 -0.8300
vn 0.5577 -0.0000 0.8300
vn -0.9721 -0.0000 0.2346
vn 0.9969 -0.0000 0.0781
vn 1.0000 -0.0000 -0.0000
vn 0.9680 -0.0000 0.2511
vn 0.9203 -0.0000 -0.3913
vn 0.2345 0.0219 -0.9719
vn -0.9989 -0.0000 -0.0464
vn 0.9989 -0.0000 0.0464
vn 0.3912 0.0209 -0.9201
vn 0.9924 -0.0017 0.1229
vn -0.3912 0.0201 -0.9201
vn 0.5466 0.0192 -0.8372
vn 0.9344 -0.0070 0.3563
vn -0.0464 -0.0223 0.9987
vn -0.2345 0.0214 -0.9719
vn 0.6959 0.0167 -0.7179
vn 0.8300 -0.0115 0.5577
vn -0.0781 0.0221 -0.9967
vn 0.8300 0.0133 -0.5576
vn 0.6959 -0.0152 0.7179
vn -0.0020 -0.0222 0.9998
vn 0.9343 0.0089 -0.3563
vn 0.5466 -0.0181 0.8372
vn 0.4826 0.0200 -0.8756
vn 0.3912 -0.0201 0.9201
vn -0.0162 0.0222 -0.9996
vn 0.2345 -0.0214 0.9719
vn -0.4763 0.0191 -0.8791
vn 0.0781 -0.0221 0.9967
vn -0.0781 -0.0222 0.9967
vn -0.2345 -0.0219 0.9719
vn -0.3912 -0.0209 0.9201
vn -0.5466 -0.0192 0.8372
vn -0.6959 -0.0167 0.7179
vn -0.8300 -0.0133 0.5576
vn -0.9343 -0.0089 0.3563
vn -0.9924 -0.0038 0.1229
vn -0.9924 0.0017 -0.1229
vn -0.9344 0.0070 -0.3563
vn -0.8300 0.0115 -0.5577
vn 0.0781 0.0222 -0.9967
vn -0.6959 0.0152 -0.7179
vn -1.0000 -0.0000 -0.0000
vn 0.9612 -0.0000 -0.2758
vn 0.7180 -0.0000 -0.6960
vn -0.5577 -0.0000 0.8300
vn -0.2426 -0.0000 0.9701
vn 0.2426 -0.0000 -0.9701
vn 0.9344 -0.0000 -0.3563
vn 0.3563 -0.0000 0.9344
vn -0.6960 -0.0000 0.7180
vn 0.9721 -0.0000 0.2346
vn -0.9969 -0.0000 -0.0781
vn 0.0020 -0.0000 -1.0000
vn 1.0000 -0.0000 0.0020
vn -1.0000 -0.0000 -0.0020
vn 0.9721 -0.0000 -0.2346
vn -0.9203 -0.0000 0.3913
vn 0.3994 -0.0000 0.9168
vn -0.3994 -0.0000 -0.9168
vn 0.9969 -0.0000 -0.0781
vn -0.9969 -0.0000 0.0781
vn 0.9203 -0.0000 0.3913
vn -0.9203 -0.0000 -0.3913
vn 0.8373 -0.0000 0.5467
vn 0.7180 -0.0000 0.6960
vn -0.7180 -0.0000 -0.6960
vn -0.5577 -0.0000 -0.8300
vn 0.1229 -0.0000 0.9924
vn -0.1229 -0.0000 -0.9924
vn -0.1229 -0.0000 0.9924
vn 0.1229 -0.0000 -0.9924
vn -0.3563 -0.0000 0.9344
vn -0.8373 -0.0000 0.5467
vn 0.8373 -0.0000 -0.5467
vn -0.9884 -0.0000 -0.1519
vn 0.5445 -0.0000 0.8387
vn -0.4485 -0.0000 -0.8938
vn 0.0464 -0.0000 -0.9989
vt 1.000000 0.500000
vt 1.000000 1.000000
vt 0.968750 1.000000
vt 0.968750 0.500000
vt 0.937500 1.000000
vt 0.937500 0.500000
vt 0.906250 1.000000
vt 0.906250 0.500000
vt 0.875000 1.000000
vt 0.875000 0.500000
vt 0.843750 1.000000
vt 0.843750 0.500000
vt 0.812500 1.000000
vt 0.812500 0.500000
vt 0.781250 1.000000
vt 0.781250 0.500000
vt 0.750000 1.000000
vt 0.750000 0.500000
vt 0.718750 1.000000
vt 0.718750 0.500000
vt 0.687500 1.000000
vt 0.687500 0.500000
vt 0.656250 1.000000
vt 0.656250 0.500000
vt 0.625000 1.000000
vt 0.625000 0.500000
vt 0.593750 1.000000
vt 0.593750 0.500000
vt 0.562500 1.000000
vt 0.562500 0.500000
vt 0.531250 1.000000
vt 0.531250 0.500000
vt 0.500000 1.000000
vt 0.500000 0.500000
vt 0.125000 0.500000
vt 0.125000 1.000000
vt 0.093750 1.000000
vt 0.093750 0.500000
vt 0.062500 1.000000
vt 0.062500 0.500000
vt 0.031250 1.000000
vt 0.031250 0.500000
vt 0.000000 1.000000
vt 0.000000 0.500000
vt 0.750000 0.490000
vt 0.796822 0.485388
vt 0.841844 0.471731
vt 0.883337 0.449553
vt 0.919706 0.419706
vt 0.949553 0.383337
vt 0.971731 0.341844
vt 0.985388 0.296822
vt 0.990000 0.250000
vt 0.985388 0.203178
vt 0.971731 0.158156
vt 0.949553 0.116663
vt 0.919706 0.080294
vt 0.883337 0.050447
vt 0.841844 0.028269
vt 0.796822 0.014612
vt 0.750000 0.010000
vt 0.703178 0.014612
vt 0.658156 0.028269
vt 0.616663 0.050447
vt 0.580294 0.080294
vt 0.550447 0.116663
vt 0.528269 0.158156
vt 0.514612 0.203178
vt 0.510000 0.250000
vt 0.514612 0.296822
vt 0.528269 0.341844
vt 0.550447 0.383337
vt 0.580294 0.419706
vt 0.616663 0.449553
vt 0.658156 0.471731
vt 0.703178 0.485388
vt 0.187500 0.500000
vt 0.187500 1.000000
vt 0.156250 1.000000
vt 0.156250 0.500000
vt 0.250000 0.010000
vt 0.203178 0.014612
vt 0.158156 0.028269
vt 0.116663 0.050447
vt 0.080294 0.080294
vt 0.050447 0.116663
vt 0.028269 0.158156
vt 0.014612 0.203178
vt 0.010000 0.250000
vt 0.014612 0.296822
vt 0.028269 0.341844
vt 0.000000 0.000000
vt 0.296822 0.485388
vt 0.250000 0.490000
vt 0.203178 0.485388
vt 0.158156 0.471731
vt 0.116663 0.449553
vt 0.080294 0.419706
vt 0.050447 0.383337
vt 0.296822 0.014612
vt 0.341844 0.028269
vt 0.383337 0.050447
vt 0.419706 0.080294
vt 0.449553 0.116663
vt 0.471731 0.158156
vt 0.485388 0.203178
vt 0.490000 0.250000
vt 0.485388 0.296822
vt 0.471731 0.341844
vt 0.449553 0.383337
vt 0.419706 0.419706
vt 0.383337 0.449553
vt 0.341844 0.471731
s 0
usemtl Pond
f 1/1/1 2/2/1 4/3/1 3/4/1
f 6/5/2 5/6/2 343/6/2 344/5/2
f 5/6/3 6/5/3 8/7/3 7/8/3
f 7/8/4 8/7/4 10/9/4 9/10/4
f 9/10/5 10/9/5 12/11/5 11/12/5
f 11/12/6 12/11/6 14/13/6 13/14/6
f 16/15/7 15/16/7 363/16/7 364/15/7
f 15/16/8 16/15/8 18/17/8 17/18/8
f 17/18/9 18/17/9 20/19/9 19/20/9
f 19/20/10 20/19/10 22/21/10 21/22/10
f 21/22/11 22/21/11 24/23/11 23/24/11
f 23/24/12 24/23/12 26/25/12 25/26/12
f 25/26/13 26/25/13 28/27/13 27/28/13
f 27/28/14 28/27/14 30/29/14 29/30/14
f 29/30/15 30/29/15 32/31/15 31/32/15
f 31/32/16 32/31/16 34/33/16 33/34/16
f 46/35/17 47/36/17 49/37/17 48/38/17
f 48/38/18 49/37/18 51/39/18 50/40/18
f 50/40/19 51/39/19 53/41/19 52/42/19
f 52/42/20 53/41/20 2/43/20 1/44/20
f 1/45/21 3/46/21 5/47/21 7/48/21 9/49/21 11/50/21 13/51/21 15/52/21 17/53/21 19/54/21 21/55/21 23/56/21 25/57/21 27/58/21 29/59/21 31/60/21 33/61/21 35/62/21 36/63/21 37/64/21 38/65/21 39/66/21 40/67/21 41/68/21 42/69/21 43/70/21 44/71/21 45/72/21 46/73/21 48/74/21 50/75/21 52/76/21
f 54/1/1 55/2/1 57/3/1 56/4/1
f 56/4/22 57/3/22 59/5/22 58/6/22
f 59/5/23 57/3/23 249/3/23 251/5/23
f 60/8/4 61/7/4 63/9/4 62/10/4
f 95/77/24 96/78/24 98/79/24 97/80/24
f 97/80/25 98/79/25 100/36/25 99/35/25
f 99/35/17 100/36/17 102/37/17 101/38/17
f 101/38/18 102/37/18 104/39/18 103/40/18
f 106/41/15 104/39/15 169/39/15 170/41/15
f 55/43/23 106/41/23 260/41/23 250/43/23
f 105/42/20 106/41/20 55/43/20 54/44/20
f 54/45/21 56/46/21 58/47/21 60/48/21 62/49/21 64/50/21 65/51/21 66/52/21 67/53/21 68/54/21 69/55/21 70/56/21 71/57/21 72/58/21 73/59/21 74/60/21 75/61/21 77/62/21 79/63/21 81/64/21 83/65/21 85/66/21 87/67/21 89/68/21 91/69/21 93/70/21 95/71/21 97/72/21 99/73/21 101/74/21 103/75/21 105/76/21
f 76/81/26 78/82/26 77/62/26 75/61/26
f 77/62/2 78/82/2 302/82/2 299/62/2
f 79/63/27 80/83/27 82/84/27 81/64/27
f 81/64/28 82/84/28 84/85/28 83/65/28
f 159/85/29 84/85/29 292/85/29 298/85/29
f 85/66/30 86/86/30 88/87/30 87/67/30
f 87/67/31 88/87/31 90/88/31 89/68/31
f 89/68/32 90/88/32 92/89/32 91/69/32
f 91/69/33 92/89/33 94/90/33 93/70/33
f 93/70/34 94/90/34 96/91/34 95/77/34
f 33/34/35 34/33/35 76/81/35 75/61/35
f 33/34/21 75/61/21 39/92/21 70/92/21
f 168/37/36 167/36/36 235/36/36 236/37/36
f 172/92/37 239/92/37 240/92/37 171/92/37
f 115/17/38 114/15/38 182/15/38 183/17/38
f 20/19/39 116/19/39 376/19/39 374/19/39
f 86/86/5 84/85/5 159/85/5 160/86/5
f 137/39/21 138/41/21 331/41/21 332/39/21
f 102/37/23 100/36/23 256/36/23 255/37/23
f 163/89/7 92/89/7 285/89/7 289/89/7
f 6/5/40 4/3/40 107/3/40 109/5/40
f 24/23/23 22/21/23 378/21/23 377/23/23
f 2/43/23 53/41/23 334/41/23 333/43/23
f 162/88/21 163/89/21 289/89/21 288/88/21
f 8/7/23 6/5/23 346/5/23 345/7/23
f 106/41/41 105/42/41 259/42/41 260/41/41
f 119/25/42 26/25/42 381/25/42 383/25/42
f 161/87/21 162/88/21 288/88/21 286/87/21
f 164/90/21 165/91/21 281/91/21 279/90/21
f 8/7/43 110/7/43 352/7/43 350/7/43
f 119/25/21 120/27/21 387/27/21 388/25/21
f 100/36/41 167/36/41 265/36/41 256/36/41
f 163/89/21 164/90/21 279/90/21 280/89/21
f 111/9/21 112/11/21 355/11/21 356/9/21
f 123/33/21 155/81/21 310/81/21 309/33/21
f 121/29/21 122/31/21 317/31/21 315/29/21
f 61/7/27 59/5/27 141/5/27 142/7/27
f 166/79/44 98/79/44 272/79/44 274/79/44
f 113/13/45 14/13/45 357/13/45 359/13/45
f 34/33/23 32/31/23 313/31/23 314/33/23
f 49/37/23 47/36/23 242/36/23 241/37/23
f 100/36/23 98/79/23 269/79/23 268/36/23
f 16/15/31 14/13/31 113/13/31 114/15/31
f 123/33/46 34/33/46 314/33/46 318/33/46
f 76/81/47 155/81/47 306/81/47 304/81/47
f 104/39/21 106/41/21 260/41/21 257/39/21
f 114/15/21 115/17/21 367/17/21 368/15/21
f 80/83/22 78/82/22 156/82/22 157/83/22
f 143/9/48 63/9/48 243/9/48 247/9/48
f 61/7/41 60/8/41 253/8/41 254/7/41
f 86/86/49 85/66/49 294/66/49 295/86/49
f 115/17/21 116/19/21 371/19/21 372/17/21
f 137/39/50 51/39/50 319/39/50 321/39/50
f 85/66/23 83/65/23 293/65/23 294/66/23
f 107/3/47 4/3/47 337/3/47 339/3/47
f 47/92/23 63/92/23 172/92/23 171/92/23
f 141/5/51 139/3/51 207/3/51 209/5/51
f 63/9/52 143/9/52 173/9/52 172/9/52
f 135/36/53 47/36/53 171/36/53 174/36/53
f 143/92/21 135/92/21 174/92/21 173/92/21
f 142/7/54 141/5/54 209/5/54 210/7/54
f 116/19/55 115/17/55 183/17/55 184/19/55
f 169/39/56 168/37/56 236/37/56 237/39/56
f 143/9/57 142/7/57 210/7/57 211/9/57
f 117/21/58 116/19/58 184/19/58 185/21/58
f 173/92/59 174/92/59 240/92/59 239/92/59
f 170/41/60 169/39/60 237/39/60 238/41/60
f 144/92/61 143/92/61 211/92/61 212/92/61
f 118/23/62 117/21/62 185/21/62 186/23/62
f 140/43/63 170/41/63 238/41/63 208/43/63
f 145/92/64 144/92/64 212/92/64 213/92/64
f 119/25/65 118/23/65 186/23/65 187/25/65
f 155/81/66 123/33/66 191/33/66 223/81/66
f 146/92/67 145/92/67 213/92/67 214/92/67
f 120/27/68 119/25/68 187/25/68 188/27/68
f 123/92/69 150/92/69 218/92/69 191/92/69
f 147/92/38 146/92/38 214/92/38 215/92/38
f 121/29/70 120/27/70 188/27/70 189/29/70
f 150/92/71 128/92/71 196/92/71 218/92/71
f 148/92/55 147/92/55 215/92/55 216/92/55
f 122/31/72 121/29/72 189/29/72 190/31/72
f 128/92/73 155/92/73 223/92/73 196/92/73
f 149/92/58 148/92/58 216/92/58 217/92/58
f 123/33/74 122/31/74 190/31/74 191/33/74
f 150/92/62 149/92/62 217/92/62 218/92/62
f 124/92/75 123/92/75 191/92/75 192/92/75
f 151/92/65 150/92/65 218/92/65 219/92/65
f 125/92/76 124/92/76 192/92/76 193/92/76
f 152/92/68 151/92/68 219/92/68 220/92/68
f 126/92/77 125/92/77 193/92/77 194/92/77
f 153/92/70 152/92/70 220/92/70 221/92/70
f 127/92/78 126/92/78 194/92/78 195/92/78
f 154/92/72 153/92/72 221/92/72 222/92/72
f 128/92/79 127/92/79 195/92/79 196/92/79
f 155/92/74 154/92/74 222/92/74 223/92/74
f 129/92/80 128/92/80 196/92/80 197/92/80
f 156/82/75 155/81/75 223/81/75 224/82/75
f 130/92/81 129/92/81 197/92/81 198/92/81
f 157/83/76 156/82/76 224/82/76 225/83/76
f 131/92/82 130/92/82 198/92/82 199/92/82
f 158/84/77 157/83/77 225/83/77 226/84/77
f 132/92/83 131/92/83 199/92/83 200/92/83
f 159/85/78 158/84/78 226/84/78 227/85/78
f 133/92/84 132/92/84 200/92/84 201/92/84
f 160/86/79 159/85/79 227/85/79 228/86/79
f 134/92/85 133/92/85 201/92/85 202/92/85
f 107/3/86 108/2/86 176/2/86 175/3/86
f 161/87/80 160/86/80 228/86/80 229/87/80
f 135/92/87 134/92/87 202/92/87 203/92/87
f 109/5/51 107/3/51 175/3/51 177/5/51
f 162/88/81 161/87/81 229/87/81 230/88/81
f 136/37/36 135/36/36 203/36/36 204/37/36
f 110/7/54 109/5/54 177/5/54 178/7/54
f 163/89/82 162/88/82 230/88/82 231/89/82
f 137/39/56 136/37/56 204/37/56 205/39/56
f 111/9/57 110/7/57 178/7/57 179/9/57
f 164/90/83 163/89/83 231/89/83 232/90/83
f 138/41/60 137/39/60 205/39/60 206/41/60
f 112/11/61 111/9/61 179/9/61 180/11/61
f 165/91/84 164/90/84 232/90/84 233/91/84
f 108/43/63 138/41/63 206/41/63 176/43/63
f 113/13/64 112/11/64 180/11/64 181/13/64
f 166/79/85 165/78/85 233/78/85 234/79/85
f 139/3/86 140/2/86 208/2/86 207/3/86
f 114/15/67 113/13/67 181/13/67 182/15/67
f 167/36/87 166/79/87 234/79/87 235/36/87
f 243/9/28 244/7/28 248/7/28 247/9/28
f 241/37/13 242/36/13 246/36/13 245/37/13
f 61/7/88 142/7/88 248/7/88 244/7/88
f 135/36/21 136/37/21 245/37/21 246/36/21
f 47/36/88 135/36/88 246/36/88 242/36/88
f 142/7/21 143/9/21 247/9/21 248/7/21
f 136/37/48 49/37/48 241/37/48 245/37/48
f 63/9/23 61/7/23 244/7/23 243/9/23
f 252/6/3 251/5/3 254/7/3 253/8/3
f 258/40/19 257/39/19 260/41/19 259/42/19
f 250/43/16 260/41/16 267/41/16 262/43/16
f 249/3/26 250/2/26 262/2/26 261/3/26
f 251/5/40 249/3/40 261/3/40 263/5/40
f 255/37/13 256/36/13 265/36/13 264/37/13
f 257/39/14 255/37/14 264/37/14 266/39/14
f 167/36/21 168/37/21 264/37/21 265/36/21
f 58/6/89 59/5/89 251/5/89 252/6/89
f 141/5/89 59/5/89 251/5/89 263/5/89
f 104/39/23 102/37/23 255/37/23 257/39/23
f 169/39/89 104/39/89 257/39/89 266/39/89
f 168/37/21 169/39/21 266/39/21 264/37/21
f 60/48/23 58/47/23 252/47/23 253/48/23
f 103/40/89 104/39/89 257/39/89 258/40/89
f 106/41/41 170/41/41 267/41/41 260/41/41
f 140/2/21 139/3/21 261/3/21 262/2/21
f 59/5/21 61/7/21 254/7/21 251/5/21
f 105/76/23 103/75/23 258/75/23 259/76/23
f 139/3/21 141/5/21 263/5/21 261/3/21
f 57/3/23 55/2/23 250/2/23 249/3/23
f 170/41/21 140/43/21 262/43/21 267/41/21
f 268/36/12 269/79/12 271/79/12 270/36/12
f 166/79/21 167/36/21 270/36/21 271/79/21
f 167/36/90 100/36/90 268/36/90 270/36/90
f 98/79/42 166/79/42 271/79/42 269/79/42
f 272/79/11 273/78/11 275/78/11 274/79/11
f 98/79/23 96/78/23 273/78/23 272/79/23
f 165/78/21 166/79/21 274/79/21 275/78/21
f 96/91/91 165/91/91 275/91/91 273/91/91
f 276/90/9 277/89/9 280/89/9 279/90/9
f 278/91/10 276/90/10 279/90/10 281/91/10
f 96/91/23 94/90/23 276/90/23 278/91/23
f 92/89/92 163/89/92 280/89/92 277/89/92
f 94/90/23 92/89/23 277/89/23 276/90/23
f 165/91/93 96/91/93 278/91/93 281/91/93
f 282/87/6 283/86/6 287/86/6 286/87/6
f 284/88/94 282/87/94 286/87/94 288/88/94
f 285/89/8 284/88/8 288/88/8 289/89/8
f 160/86/21 161/87/21 286/87/21 287/86/21
f 86/86/95 160/86/95 287/86/95 283/86/95
f 92/89/23 90/88/23 284/88/23 285/89/23
f 90/88/23 88/87/23 282/87/23 284/88/23
f 88/87/23 86/86/23 283/86/23 282/87/23
f 293/65/96 292/85/96 295/86/96 294/66/96
f 290/84/3 291/83/3 297/83/3 296/84/3
f 292/85/4 290/84/4 296/84/4 298/85/4
f 82/84/23 80/83/23 291/83/23 290/84/23
f 84/85/21 86/86/21 295/86/21 292/85/21
f 80/83/49 157/83/49 297/83/49 291/83/49
f 157/83/21 158/84/21 296/84/21 297/83/21
f 83/65/29 84/85/29 292/85/29 293/65/29
f 84/85/23 82/84/23 290/84/23 292/85/23
f 158/84/21 159/85/21 298/85/21 296/84/21
f 299/62/40 302/82/40 301/83/40 300/63/40
f 78/82/21 80/83/21 301/83/21 302/82/21
f 80/83/97 79/63/97 300/63/97 301/83/97
f 79/63/23 77/62/23 299/62/23 300/63/23
f 303/82/1 304/81/1 306/81/1 305/82/1
f 78/82/23 76/81/23 304/81/23 303/82/23
f 155/81/21 156/82/21 305/82/21 306/81/21
f 156/82/98 78/82/98 303/82/98 305/82/98
f 308/81/99 307/33/99 309/33/99 310/81/99
f 34/33/100 123/33/100 309/33/100 307/33/100
f 76/81/23 34/33/23 307/33/23 308/81/23
f 155/81/101 76/81/101 308/81/101 310/81/101
f 311/29/18 312/27/18 316/27/18 315/29/18
f 313/31/19 311/29/19 315/29/19 317/31/19
f 314/33/20 313/31/20 317/31/20 318/33/20
f 28/27/102 120/27/102 316/27/102 312/27/102
f 30/29/23 28/27/23 312/27/23 311/29/23
f 122/31/21 123/33/21 318/33/21 317/31/21
f 32/31/23 30/29/23 311/29/23 313/31/23
f 120/27/21 121/29/21 315/29/21 316/27/21
f 319/39/14 320/37/14 322/37/14 321/39/14
f 51/39/23 49/37/23 320/37/23 319/39/23
f 49/37/103 136/37/103 322/37/103 320/37/103
f 136/37/21 137/39/21 321/39/21 322/37/21
f 320/92/104 241/92/104 323/92/104 325/92/104
f 325/92/105 323/92/105 326/92/105 328/92/105
f 49/37/50 320/37/50 325/37/50 324/37/50
f 241/37/88 49/37/88 324/37/88 323/37/88
f 328/92/21 326/92/21 327/92/21
f 324/37/103 325/37/103 328/37/103 327/37/103
f 323/37/48 324/37/48 327/37/48 326/37/48
f 329/41/15 330/39/15 332/39/15 331/41/15
f 51/39/46 137/39/46 332/39/46 330/39/46
f 138/41/102 53/41/102 329/41/102 331/41/102
f 53/41/23 51/39/23 330/39/23 329/41/23
f 333/43/16 334/41/16 336/41/16 335/43/16
f 108/2/106 2/2/106 333/2/106 335/2/106
f 138/41/21 108/43/21 335/43/21 336/41/21
f 53/41/107 138/41/107 336/41/107 334/41/107
f 337/3/26 338/2/26 340/2/26 339/3/26
f 2/2/98 108/2/98 340/2/98 338/2/98
f 108/2/21 107/3/21 339/3/21 340/2/21
f 4/3/23 2/2/23 338/2/23 337/3/23
f 342/4/22 341/3/22 344/5/22 343/6/22
f 5/47/23 3/46/23 342/46/23 343/47/23
f 4/3/21 6/5/21 344/5/21 341/3/21
f 3/4/97 4/3/97 341/3/97 342/4/97
f 345/7/27 346/5/27 348/5/27 347/7/27
f 110/7/108 8/7/108 345/7/108 347/7/108
f 109/5/21 110/7/21 347/7/21 348/5/21
f 6/5/109 109/5/109 348/5/109 346/5/109
f 349/9/28 350/7/28 352/7/28 351/9/28
f 10/9/23 8/7/23 350/7/23 349/9/23
f 111/9/110 10/9/110 349/9/110 351/9/110
f 110/7/21 111/9/21 351/9/21 352/7/21
f 353/11/96 354/9/96 356/9/96 355/11/96
f 112/11/111 12/11/111 353/11/111 355/11/111
f 10/9/112 111/9/112 356/9/112 354/9/112
f 12/11/23 10/9/23 354/9/23 353/11/23
f 357/13/30 358/11/30 360/11/30 359/13/30
f 14/13/23 12/11/23 358/11/23 357/13/23
f 12/11/113 112/11/113 360/11/113 358/11/113
f 112/11/21 113/13/21 359/13/21 360/11/21
f 362/14/94 361/13/94 364/15/94 363/16/94
f 15/52/23 13/51/23 362/51/23 363/52/23
f 14/13/21 16/15/21 364/15/21 361/13/21
f 13/14/95 14/13/95 361/13/95 362/14/95
f 365/17/32 366/15/32 368/15/32 367/17/32
f 115/17/114 18/17/114 365/17/114 367/17/114
f 18/17/23 16/15/23 366/15/23 365/17/23
f 16/15/115 114/15/115 368/15/115 366/15/115
f 369/19/33 370/17/33 372/17/33 371/19/33
f 20/19/23 18/17/23 370/17/23 369/19/23
f 116/19/116 20/19/116 369/19/116 371/19/116
f 18/17/117 115/17/117 372/17/117 370/17/117
f 373/21/34 374/19/34 376/19/34 375/21/34
f 22/21/23 20/19/23 374/19/23 373/21/23
f 116/19/21 117/21/21 375/21/21 376/19/21
f 117/21/118 22/21/118 373/21/118 375/21/118
f 377/23/24 378/21/24 380/21/24 379/23/24
f 117/21/21 118/23/21 379/23/21 380/21/21
f 22/21/44 117/21/44 380/21/44 378/21/44
f 118/23/91 24/23/91 377/23/91 379/23/91
f 381/25/25 382/23/25 384/23/25 383/25/25
f 26/25/23 24/23/23 382/23/23 381/25/23
f 118/23/21 119/25/21 383/25/21 384/23/21
f 24/23/90 118/23/90 384/23/90 382/23/90
f 385/27/17 386/25/17 388/25/17 387/27/17
f 120/27/119 28/27/119 385/27/119 387/27/119
f 26/25/120 119/25/120 388/25/120 386/25/120
f 28/27/23 26/25/23 386/25/23 385/27/23
f 312/92/23 385/92/23 381/92/23
f 389/92/21 390/92/21 391/92/21
f 385/92/121 312/92/121 389/92/121 391/92/121
f 381/92/122 385/92/122 391/92/122 390/92/122
f 312/92/123 381/92/123 390/92/123 389/92/123
f 156/92/22 77/92/22 79/92/22 157/92/22
f 113/13/94 114/15/94 15/52/94 13/51/94
f 109/5/40 107/3/40 3/46/40 5/47/40
f 47/92/124 135/92/124 143/92/124 63/92/124
f 135/92/124 46/92/124 62/92/124 143/92/124
f 142/7/27 141/5/27 58/47/27 60/48/27
f 170/41/15 169/39/15 103/75/15 105/76/15
f 159/92/5 83/92/5 85/92/5 160/92/5
usemtl Pond_front
f 175/93/23 176/94/23 206/95/23 205/96/23 204/97/23 203/98/23 202/99/23 201/91/23 200/90/23 199/89/23 198/88/23 197/87/23 196/86/23 195/85/23 194/84/23 193/83/23 192/82/23 191/81/23 190/100/23 189/101/23 188/102/23 187/103/23 186/104/23 185/105/23 184/106/23 183/107/23 182/108/23 181/109/23 180/110/23 179/111/23 178/112/23 177/113/23
f 207/93/23 208/94/23 238/95/23 237/96/23 236/97/23 235/98/23 234/99/23 233/91/23 232/90/23 231/89/23 230/88/23 229/87/23 228/86/23 227/85/23 226/84/23 225/83/23 224/82/23 223/81/23 222/100/23 221/101/23 220/102/23 219/103/23 218/104/23 217/105/23 216/106/23 215/107/23 214/108/23 213/109/23 212/110/23 211/111/23 210/112/23 209/113/23
f 223/81/23 191/33/23 218/92/23 196/92/23
