# Blender 4.0.2
# www.blender.org
mtllib SmallOffice.mtl
o Plane.068
v 4.818834 0.135699 41.417835
v 7.864759 0.135699 41.417835
v 4.818834 0.135699 36.385769
v 7.864759 0.135699 36.385769
v 4.818834 0.986307 36.385769
v 4.818834 0.986307 41.417835
v 7.864759 0.986307 41.417835
v 7.864759 0.986307 36.385769
v 4.818834 1.072894 36.385769
v 4.818834 1.072894 41.417835
v 7.864759 1.072894 41.417835
v 7.864759 1.072894 36.385769
v 4.680173 0.986307 36.156693
v 4.680173 0.986307 41.646912
v 8.003421 0.986307 41.646912
v 8.003421 0.986307 36.156693
v 4.680173 1.072894 36.156693
v 4.680173 1.072894 41.646912
v 8.003421 1.072894 41.646912
v 8.003421 1.072894 36.156693
v 7.864759 0.240208 36.385769
v 7.864759 0.240208 41.417835
v 4.818834 0.240208 41.417835
v 4.818834 0.240208 36.385769
v 4.818834 0.135699 37.104633
v 4.818834 0.135699 37.823502
v 4.818834 0.135699 38.542370
v 4.818834 0.135699 39.261234
v 4.818834 0.135699 39.980103
v 4.818834 0.135699 40.698971
v 7.864759 0.135699 40.698971
v 7.864759 0.135699 39.980103
v 7.864759 0.135699 39.261234
v 7.864759 0.135699 38.542370
v 7.864759 0.135699 37.823502
v 7.864759 0.135699 37.104633
v 4.818834 0.934433 37.235153
v 4.818834 0.934433 37.692986
v 4.818834 0.934433 38.672886
v 4.818834 0.934433 39.130718
v 4.818834 0.934433 40.110619
v 4.818834 0.934433 40.568451
v 7.864759 0.929788 40.556767
v 7.864759 0.929788 40.122307
v 7.864759 0.929788 39.119030
v 7.864759 0.929788 38.684574
v 7.864759 0.929788 37.681297
v 7.864759 0.929788 37.246838
v 4.818834 1.072894 37.104633
v 4.818834 1.072894 37.823502
v 4.818834 1.072894 38.542370
v 4.818834 1.072894 39.261234
v 4.818834 1.072894 39.980103
v 4.818834 1.072894 40.698971
v 7.864759 1.072894 40.698971
v 7.864759 1.072894 39.980103
v 7.864759 1.072894 39.261234
v 7.864759 1.072894 38.542370
v 7.864759 1.072894 37.823502
v 7.864759 1.072894 37.104633
v 4.680173 0.986307 36.941010
v 4.680173 0.986307 37.725327
v 4.680173 0.986307 38.509644
v 4.680173 0.986307 39.293961
v 4.680173 0.986307 40.078278
v 4.680173 0.986307 40.862595
v 8.003421 0.986307 40.862595
v 8.003421 0.986307 40.078278
v 8.003421 0.986307 39.293961
v 8.003421 0.986307 38.509644
v 8.003421 0.986307 37.725327
v 8.003421 0.986307 36.941010
v 4.680173 1.072894 36.941010
v 4.680173 1.072894 37.725327
v 4.680173 1.072894 38.509644
v 4.680173 1.072894 39.293961
v 4.680173 1.072894 40.078278
v 4.680173 1.072894 40.862595
v 8.003421 1.072894 40.862595
v 8.003421 1.072894 40.078278
v 8.003421 1.072894 39.293961
v 8.003421 1.072894 38.509644
v 8.003421 1.072894 37.725327
v 8.003421 1.072894 36.941010
v 4.818834 0.292082 40.568451
v 4.818834 0.292082 40.110619
v 4.818834 0.292082 39.130718
v 4.818834 0.292082 38.672886
v 4.818834 0.292082 37.692986
v 4.818834 0.292082 37.235153
v 7.864759 0.296727 37.246838
v 7.864759 0.296727 37.681297
v 7.864759 0.296727 38.684574
v 7.864759 0.296727 39.119030
v 7.864759 0.296727 40.122307
v 7.864759 0.296727 40.556767
v 5.428019 0.135699 41.417835
v 6.037204 0.135699 41.417835
v 6.646389 0.135699 41.417835
v 7.255575 0.135699 41.417835
v 7.255575 0.135699 36.385769
v 6.646389 0.135699 36.385769
v 6.037204 0.135699 36.385769
v 5.428019 0.135699 36.385769
v 5.532277 0.917850 41.417835
v 5.932946 0.917850 41.417835
v 6.750648 0.917850 41.417835
v 7.151317 0.917850 41.417835
v 7.147134 0.915104 36.385769
v 6.754830 0.915104 36.385769
v 5.928764 0.915104 36.385769
v 5.536460 0.915104 36.385769
v 5.428019 1.072894 41.417835
v 6.037204 1.072894 41.417835
v 6.646389 1.072894 41.417835
v 7.255575 1.072894 41.417835
v 7.255575 1.072894 36.385769
v 6.646389 1.072894 36.385769
v 6.037204 1.072894 36.385769
v 5.428019 1.072894 36.385769
v 5.344823 0.986307 41.646912
v 6.009472 0.986307 41.646912
v 6.674122 0.986307 41.646912
v 7.338771 0.986307 41.646912
v 7.338771 0.986307 36.156693
v 6.674122 0.986307 36.156693
v 6.009472 0.986307 36.156693
v 5.344823 0.986307 36.156693
v 5.344823 1.072894 41.646912
v 6.009472 1.072894 41.646912
v 6.674122 1.072894 41.646912
v 7.338771 1.072894 41.646912
v 7.338771 1.072894 36.156693
v 6.674122 1.072894 36.156693
v 6.009472 1.072894 36.156693
v 5.344823 1.072894 36.156693
v 7.151317 0.308665 41.417835
v 6.750648 0.308665 41.417835
v 5.932946 0.308665 41.417835
v 5.532277 0.308665 41.417835
v 5.536460 0.311412 36.385769
v 5.928764 0.311412 36.385769
v 6.754830 0.311412 36.385769
v 7.147134 0.311412 36.385769
v 7.255575 1.072894 40.698971
v 6.646389 1.072894 40.698971
v 6.037204 1.072894 40.698971
v 5.428019 1.072894 40.698971
v 7.255575 1.072894 39.980103
v 6.646389 1.072894 39.980103
v 6.037204 1.072894 39.980103
v 5.428019 1.072894 39.980103
v 7.255575 1.072894 39.261234
v 6.646389 1.072894 39.261234
v 6.037204 1.072894 39.261234
v 5.428019 1.072894 39.261234
v 7.255575 1.072894 38.542370
v 6.646389 1.072894 38.542370
v 6.037204 1.072894 38.542370
v 5.428019 1.072894 38.542370
v 7.255575 1.072894 37.823502
v 6.646389 1.072894 37.823502
v 6.037204 1.072894 37.823502
v 5.428019 1.072894 37.823502
v 7.255575 1.072894 37.104633
v 6.646389 1.072894 37.104633
v 6.037204 1.072894 37.104633
v 5.428019 1.072894 37.104633
v 5.428019 0.135699 40.698971
v 6.037204 0.135699 40.698971
v 6.646389 0.135699 40.698971
v 7.255575 0.135699 40.698971
v 5.428019 0.135699 39.980103
v 6.037204 0.135699 39.980103
v 6.646389 0.135699 39.980103
v 7.255575 0.135699 39.980103
v 5.428019 0.135699 39.261234
v 6.037204 0.135699 39.261234
v 6.646389 0.135699 39.261234
v 7.255575 0.135699 39.261234
v 5.428019 0.135699 38.542370
v 6.037204 0.135699 38.542370
v 6.646389 0.135699 38.542370
v 7.255575 0.135699 38.542370
v 5.428019 0.135699 37.823502
v 6.037204 0.135699 37.823502
v 6.646389 0.135699 37.823502
v 7.255575 0.135699 37.823502
v 5.428019 0.135699 37.104633
v 6.037204 0.135699 37.104633
v 6.646389 0.135699 37.104633
v 7.255575 0.135699 37.104633
v 5.428019 0.986307 41.417835
v 6.037204 0.986307 41.417835
v 6.646389 0.986307 41.417835
v 7.255575 0.986307 41.417835
v 7.255575 0.240208 41.417835
v 6.646389 0.240208 41.417835
v 6.037204 0.240208 41.417835
v 5.428019 0.240208 41.417835
v 7.255575 0.986307 36.385769
v 6.646389 0.986307 36.385769
v 6.037204 0.986307 36.385769
v 5.428019 0.986307 36.385769
v 5.428019 0.240208 36.385769
v 6.037204 0.240208 36.385769
v 6.646389 0.240208 36.385769
v 7.255575 0.240208 36.385769
v 4.818834 0.986307 37.104633
v 4.818834 0.986307 37.823502
v 4.818834 0.986307 38.542370
v 4.818834 0.986307 39.261234
v 4.818834 0.986307 39.980103
v 4.818834 0.986307 40.698971
v 4.818834 0.240208 40.698971
v 4.818834 0.240208 39.980103
v 4.818834 0.240208 39.261234
v 4.818834 0.240208 38.542370
v 4.818834 0.240208 37.823502
v 4.818834 0.240208 37.104633
v 4.884553 0.934433 37.235153
v 4.884553 0.934433 37.692986
v 4.884553 0.934433 38.672886
v 4.884553 0.934433 39.130718
v 4.884553 0.934433 40.110619
v 4.884553 0.934433 40.568451
v 4.884553 0.292082 40.568451
v 4.884553 0.292082 40.110619
v 4.884553 0.292082 39.130718
v 4.884553 0.292082 38.672886
v 4.884553 0.292082 37.692986
v 4.884553 0.292082 37.235153
v 7.864759 0.986307 40.698971
v 7.864759 0.986307 39.980103
v 7.864759 0.986307 39.261234
v 7.864759 0.986307 38.542370
v 7.864759 0.986307 37.823502
v 7.864759 0.986307 37.104633
v 7.864759 0.240208 37.104633
v 7.864759 0.240208 37.823502
v 7.864759 0.240208 38.542370
v 7.864759 0.240208 39.261234
v 7.864759 0.240208 39.980103
v 7.864759 0.240208 40.698971
vn -0.0000 -1.0000 -0.0000
vn -0.0000 1.0000 -0.0000
vn 1.0000 -0.0000 -0.0000
vn -1.0000 -0.0000 -0.0000
vn -0.0000 -0.0000 -1.0000
vn -0.0000 -0.0000 1.0000
vt 0.800000 0.857143
vt 0.800000 1.000000
vt 1.000000 1.000000
vt 1.000000 0.857143
vt 0.200000 0.000000
vt 0.000000 0.000000
vt 1.000000 0.857143
vt 0.000000 0.142857
vt 0.000000 0.142857
vt 0.200000 1.000000
vt 0.000000 1.000000
vt 0.800000 0.000000
vt 1.000000 0.000000
vt 1.000000 0.857143
vt 0.000000 0.142857
vt 1.000000 0.857143
vt 1.000000 0.142857
vt 1.000000 0.142857
vt 0.000000 0.857143
vt 1.000000 0.142857
vt 1.000000 0.285714
vt 1.000000 0.428571
vt 1.000000 0.571429
vt 1.000000 0.714286
vt 0.000000 0.857143
vt 0.000000 0.714286
vt 0.000000 0.571429
vt 0.000000 0.428571
vt 0.000000 0.285714
vt 1.000000 0.571429
vt 1.000000 0.285714
vt 0.000000 0.285714
vt 1.000000 0.714286
vt 0.800000 0.142857
vt 0.800000 0.285714
vt 0.800000 0.428571
vt 0.800000 0.571429
vt 0.800000 0.714286
vt 0.000000 0.259777
vt 0.000000 0.168794
vt 0.000000 0.831206
vt 0.000000 0.831206
vt 0.000000 0.454509
vt 0.000000 0.454509
vt 1.000000 0.171117
vt 1.000000 0.257455
vt 1.000000 0.257455
vt 1.000000 0.171117
vt 1.000000 0.456831
vt 1.000000 0.543169
vt 1.000000 0.456831
vt 1.000000 0.742545
vt 1.000000 0.828883
vt 1.000000 0.828883
vt 1.000000 0.742545
vt 0.800000 0.142857
vt 0.800000 0.285714
vt 0.800000 0.571429
vt 0.200000 0.857143
vt 0.200000 0.714286
vt 0.400000 0.857143
vt 0.400000 0.714286
vt 0.600000 0.857143
vt 0.600000 0.714286
vt 0.200000 0.571429
vt 0.400000 0.571429
vt 0.600000 0.571429
vt 0.200000 0.428571
vt 0.400000 0.428571
vt 0.600000 0.428571
vt 0.200000 0.285714
vt 0.400000 0.285714
vt 0.600000 0.285714
vt 0.200000 0.142857
vt 0.400000 0.142857
vt 0.600000 0.142857
vt 0.400000 0.000000
vt 0.600000 0.000000
vt 0.400000 0.857143
vt 0.200000 0.571429
vt 0.400000 0.571429
vt 0.600000 0.571429
vt 0.200000 0.285714
vt 0.400000 0.285714
vt 0.600000 0.285714
vt 0.400000 0.142857
vt 0.600000 0.142857
vt 0.600000 1.000000
vt 0.400000 1.000000
vt 0.200000 0.000000
vt 0.800000 1.000000
vt 0.600000 1.000000
vt 0.234229 0.000000
vt 0.365771 0.000000
vt 0.634229 0.000000
vt 0.765771 0.000000
vt 0.765771 0.000000
vt 0.764398 1.000000
vt 0.635602 1.000000
vt 0.364398 1.000000
vt 0.235602 1.000000
vt 0.000000 0.740223
vt 0.000000 0.545492
vt 0.000000 0.259777
vt 0.000000 0.168794
vt 0.000000 0.740223
s 0
usemtl Ground_building
f 192/1/1 101/2/1 4/3/1 36/4/1
f 113/5/2 10/6/2 18/6/2 129/5/2
f 239/4/3 21/3/3 8/3/3 238/7/3
f 215/8/4 23/6/4 6/6/4 214/9/4
f 205/10/5 24/11/5 5/11/5 204/10/5
f 197/12/6 22/13/6 7/13/6 196/12/6
f 165/1/2 60/14/2 12/3/2 117/2/2
f 214/9/1 6/6/1 14/6/1 66/15/1
f 117/2/2 12/3/2 20/3/2 133/2/2
f 238/7/1 8/3/1 16/3/1 72/14/1
f 72/14/3 16/3/3 20/3/3 84/16/3
f 66/15/4 14/6/4 18/6/4 78/9/4
f 128/10/5 13/11/5 17/11/5 136/10/5
f 124/12/6 15/13/6 19/13/6 132/12/6
f 204/10/1 5/11/1 13/11/1 128/10/1
f 196/12/1 7/13/1 15/13/1 124/12/1
f 55/17/2 11/13/2 19/13/2 79/18/2
f 49/19/2 9/11/2 17/11/2 73/19/2
f 100/12/6 2/13/6 22/13/6 197/12/6
f 104/10/5 3/11/5 24/11/5 205/10/5
f 30/8/4 1/6/4 23/6/4 215/8/4
f 36/4/3 4/3/3 21/3/3 239/4/3
f 2/13/3 31/20/3 244/20/3 22/13/3
f 31/20/3 32/21/3 243/21/3 244/20/3
f 32/21/3 33/22/3 242/22/3 243/21/3
f 33/22/3 34/23/3 241/23/3 242/22/3
f 34/23/3 35/24/3 240/24/3 241/23/3
f 35/24/3 36/4/3 239/4/3 240/24/3
f 3/11/4 25/25/4 220/25/4 24/11/4
f 25/25/4 26/26/4 219/26/4 220/25/4
f 26/26/4 27/27/4 218/27/4 219/26/4
f 27/27/4 28/28/4 217/28/4 218/27/4
f 28/28/4 29/29/4 216/29/4 217/28/4
f 29/29/4 30/8/4 215/8/4 216/29/4
f 10/6/2 54/9/2 78/9/2 18/6/2
f 54/9/2 53/29/2 77/29/2 78/9/2
f 53/29/2 52/28/2 76/28/2 77/29/2
f 52/28/2 51/27/2 75/27/2 76/28/2
f 51/27/2 50/26/2 74/26/2 75/27/2
f 50/26/2 49/19/2 73/19/2 74/26/2
f 12/3/2 60/14/2 84/16/2 20/3/2
f 60/14/2 59/24/2 83/24/2 84/16/2
f 59/24/2 58/30/2 82/23/2 83/24/2
f 58/30/2 57/22/2 81/22/2 82/23/2
f 57/22/2 56/31/2 80/21/2 81/22/2
f 56/31/2 55/17/2 79/18/2 80/21/2
f 13/11/4 61/25/4 73/19/4 17/11/4
f 61/25/4 62/26/4 74/26/4 73/19/4
f 62/26/4 63/27/4 75/27/4 74/26/4
f 63/27/4 64/28/4 76/28/4 75/27/4
f 64/28/4 65/32/4 77/29/4 76/28/4
f 65/32/4 66/15/4 78/9/4 77/29/4
f 15/13/3 67/17/3 79/18/3 19/13/3
f 67/17/3 68/31/3 80/21/3 79/18/3
f 68/31/3 69/22/3 81/22/3 80/21/3
f 69/22/3 70/23/3 82/23/3 81/22/3
f 70/23/3 71/33/3 83/24/3 82/23/3
f 71/33/3 72/14/3 84/16/3 83/24/3
f 7/13/1 233/20/1 67/17/1 15/13/1
f 233/20/1 234/21/1 68/31/1 67/17/1
f 234/21/1 235/22/1 69/22/1 68/31/1
f 235/22/1 236/23/1 70/23/1 69/22/1
f 236/23/1 237/24/1 71/33/1 70/23/1
f 237/24/1 238/7/1 72/14/1 71/33/1
f 5/11/1 209/19/1 61/25/1 13/11/1
f 209/19/1 210/26/1 62/26/1 61/25/1
f 210/26/1 211/27/1 63/27/1 62/26/1
f 211/27/1 212/28/1 64/28/1 63/27/1
f 212/28/1 213/29/1 65/32/1 64/28/1
f 213/29/1 214/9/1 66/15/1 65/32/1
f 116/12/2 11/13/2 55/17/2 145/34/2
f 145/34/2 55/17/2 56/31/2 149/35/2
f 149/35/2 56/31/2 57/22/2 153/36/2
f 153/36/2 57/22/2 58/30/2 157/37/2
f 157/37/2 58/30/2 59/24/2 161/38/2
f 161/38/2 59/24/2 60/14/2 165/1/2
f 24/11/4 220/25/4 209/19/4 5/11/4
f 86/39/2 85/40/2 227/40/2 228/39/2
f 219/26/4 218/27/4 211/27/4 210/26/4
f 37/41/6 90/42/6 232/42/6 221/41/6
f 217/28/4 216/29/4 213/29/4 212/28/4
f 87/43/5 40/44/5 224/44/5 229/43/5
f 22/13/3 244/20/3 233/20/3 7/13/3
f 243/21/3 242/22/3 235/22/3 234/21/3
f 241/23/3 240/24/3 237/24/3 236/23/3
f 100/12/1 172/56/1 31/20/1 2/13/1
f 172/56/1 176/57/1 32/21/1 31/20/1
f 176/57/1 180/36/1 33/22/1 32/21/1
f 180/36/1 184/58/1 34/23/1 33/22/1
f 184/58/1 188/38/1 35/24/1 34/23/1
f 188/38/1 192/1/1 36/4/1 35/24/1
f 26/26/1 25/25/1 189/59/1 185/60/1
f 185/60/1 189/59/1 190/61/1 186/62/1
f 186/62/1 190/61/1 191/63/1 187/64/1
f 187/64/1 191/63/1 192/1/1 188/38/1
f 27/27/1 26/26/1 185/60/1 181/65/1
f 181/65/1 185/60/1 186/62/1 182/66/1
f 182/66/1 186/62/1 187/64/1 183/67/1
f 183/67/1 187/64/1 188/38/1 184/58/1
f 28/28/1 27/27/1 181/65/1 177/68/1
f 177/68/1 181/65/1 182/66/1 178/69/1
f 178/69/1 182/66/1 183/67/1 179/70/1
f 179/70/1 183/67/1 184/58/1 180/36/1
f 29/29/1 28/28/1 177/68/1 173/71/1
f 173/71/1 177/68/1 178/69/1 174/72/1
f 174/72/1 178/69/1 179/70/1 175/73/1
f 175/73/1 179/70/1 180/36/1 176/57/1
f 30/8/1 29/29/1 173/71/1 169/74/1
f 169/74/1 173/71/1 174/72/1 170/75/1
f 170/75/1 174/72/1 175/73/1 171/76/1
f 171/76/1 175/73/1 176/57/1 172/56/1
f 1/6/1 30/8/1 169/74/1 97/5/1
f 97/5/1 169/74/1 170/75/1 98/77/1
f 98/77/1 170/75/1 171/76/1 99/78/1
f 99/78/1 171/76/1 172/56/1 100/12/1
f 50/26/2 164/60/2 168/59/2 49/19/2
f 164/60/2 163/62/2 167/79/2 168/59/2
f 163/62/2 162/64/2 166/63/2 167/79/2
f 162/64/2 161/38/2 165/1/2 166/63/2
f 51/27/2 160/80/2 164/60/2 50/26/2
f 160/80/2 159/81/2 163/62/2 164/60/2
f 159/81/2 158/82/2 162/64/2 163/62/2
f 158/82/2 157/37/2 161/38/2 162/64/2
f 52/28/2 156/68/2 160/80/2 51/27/2
f 156/68/2 155/69/2 159/81/2 160/80/2
f 155/69/2 154/70/2 158/82/2 159/81/2
f 154/70/2 153/36/2 157/37/2 158/82/2
f 53/29/2 152/83/2 156/68/2 52/28/2
f 152/83/2 151/84/2 155/69/2 156/68/2
f 151/84/2 150/85/2 154/70/2 155/69/2
f 150/85/2 149/35/2 153/36/2 154/70/2
f 54/9/2 148/74/2 152/83/2 53/29/2
f 148/74/2 147/86/2 151/84/2 152/83/2
f 147/86/2 146/87/2 150/85/2 151/84/2
f 146/87/2 145/34/2 149/35/2 150/85/2
f 10/6/2 113/5/2 148/74/2 54/9/2
f 113/5/2 114/77/2 147/86/2 148/74/2
f 114/77/2 115/78/2 146/87/2 147/86/2
f 115/78/2 116/12/2 145/34/2 146/87/2
f 4/3/5 101/2/5 208/2/5 21/3/5
f 101/2/5 102/88/5 207/88/5 208/2/5
f 102/88/5 103/89/5 206/89/5 207/88/5
f 103/89/5 104/10/5 205/10/5 206/89/5
f 1/6/6 97/5/6 200/5/6 23/6/6
f 97/5/6 98/77/6 199/77/6 200/5/6
f 98/77/6 99/78/6 198/78/6 199/77/6
f 99/78/6 100/12/6 197/12/6 198/78/6
f 6/6/1 193/5/1 121/90/1 14/6/1
f 193/5/1 194/77/1 122/77/1 121/90/1
f 194/77/1 195/78/1 123/78/1 122/77/1
f 195/78/1 196/12/1 124/12/1 123/78/1
f 8/3/1 201/2/1 125/91/1 16/3/1
f 201/2/1 202/88/1 126/92/1 125/91/1
f 202/88/1 203/89/1 127/89/1 126/92/1
f 203/89/1 204/10/1 128/10/1 127/89/1
f 14/6/6 121/90/6 129/5/6 18/6/6
f 121/90/6 122/77/6 130/77/6 129/5/6
f 122/77/6 123/78/6 131/78/6 130/77/6
f 123/78/6 124/12/6 132/12/6 131/78/6
f 16/3/5 125/91/5 133/2/5 20/3/5
f 125/91/5 126/92/5 134/92/5 133/2/5
f 126/92/5 127/89/5 135/89/5 134/92/5
f 127/89/5 128/10/5 136/10/5 135/89/5
f 9/11/2 120/10/2 136/10/2 17/11/2
f 120/10/2 119/89/2 135/89/2 136/10/2
f 119/89/2 118/88/2 134/92/2 135/89/2
f 118/88/2 117/2/2 133/2/2 134/92/2
f 49/19/2 168/59/2 120/10/2 9/11/2
f 168/59/2 167/79/2 119/89/2 120/10/2
f 167/79/2 166/63/2 118/88/2 119/89/2
f 166/63/2 165/1/2 117/2/2 118/88/2
f 23/6/6 200/5/6 193/5/6 6/6/6
f 199/77/6 198/78/6 195/78/6 194/77/6
f 21/3/5 208/2/5 201/2/5 8/3/5
f 207/88/5 206/89/5 203/89/5 202/88/5
f 11/13/2 116/12/2 132/12/2 19/13/2
f 116/12/2 115/78/2 131/78/2 132/12/2
f 115/78/2 114/77/2 130/77/2 131/78/2
f 114/77/2 113/5/2 129/5/2 130/77/2
f 25/25/1 3/11/1 104/10/1 189/59/1
f 189/59/1 104/10/1 103/89/1 190/61/1
f 190/61/1 103/89/1 102/88/1 191/63/1
f 191/63/1 102/88/1 101/2/1 192/1/1
f 105/93/6 106/94/6 194/77/6 193/5/6
f 107/95/6 108/97/6 196/12/6 195/78/6
f 137/96/6 138/95/6 198/78/6 197/12/6
f 139/94/6 140/93/6 200/5/6 199/77/6
f 140/93/6 105/93/6 193/5/6 200/5/6
f 106/94/6 139/94/6 199/77/6 194/77/6
f 138/95/6 107/95/6 195/78/6 198/78/6
f 108/97/6 137/96/6 197/12/6 196/12/6
f 109/98/5 110/99/5 202/88/5 201/2/5
f 111/100/5 112/101/5 204/10/5 203/89/5
f 141/101/5 142/100/5 206/89/5 205/10/5
f 143/99/5 144/98/5 208/2/5 207/88/5
f 144/98/5 109/98/5 201/2/5 208/2/5
f 110/99/5 143/99/5 207/88/5 202/88/5
f 142/100/5 111/100/5 203/89/5 206/89/5
f 112/101/5 141/101/5 205/10/5 204/10/5
f 37/41/4 38/102/4 210/26/4 209/19/4
f 39/103/4 40/44/4 212/28/4 211/27/4
f 41/104/4 42/105/4 214/9/4 213/29/4
f 85/40/4 86/39/4 216/29/4 215/8/4
f 87/43/4 88/103/4 218/27/4 217/28/4
f 89/106/4 90/42/4 220/25/4 219/26/4
f 90/42/4 37/41/4 209/19/4 220/25/4
f 38/102/4 89/106/4 219/26/4 210/26/4
f 88/103/4 39/103/4 211/27/4 218/27/4
f 40/44/4 87/43/4 217/28/4 212/28/4
f 86/39/4 41/104/4 213/29/4 216/29/4
f 42/105/4 85/40/4 215/8/4 214/9/4
f 41/104/6 86/39/6 228/39/6 225/104/6
f 38/102/1 37/41/1 221/41/1 222/102/1
f 89/106/5 38/102/5 222/102/5 231/106/5
f 88/103/2 87/43/2 229/43/2 230/103/2
f 85/40/5 42/105/5 226/105/5 227/40/5
f 40/44/1 39/103/1 223/103/1 224/44/1
f 39/103/6 88/103/6 230/103/6 223/103/6
f 90/42/2 89/106/2 231/106/2 232/42/2
f 42/105/1 41/104/1 225/104/1 226/105/1
f 43/48/3 44/47/3 234/21/3 233/20/3
f 45/51/3 46/50/3 236/23/3 235/22/3
f 47/55/3 48/54/3 238/7/3 237/24/3
f 91/53/3 92/52/3 240/24/3 239/4/3
f 93/50/3 94/49/3 242/22/3 241/23/3
f 95/46/3 96/45/3 244/20/3 243/21/3
f 96/45/3 43/48/3 233/20/3 244/20/3
f 44/47/3 95/46/3 243/21/3 234/21/3
f 94/49/3 45/51/3 235/22/3 242/22/3
f 46/50/3 93/50/3 241/23/3 236/23/3
f 92/52/3 47/55/3 237/24/3 240/24/3
f 48/54/3 91/53/3 239/4/3 238/7/3
usemtl Ground_building_windows
f 96/45/3 95/46/3 44/47/3 43/48/3
f 94/49/3 93/50/3 46/50/3 45/51/3
f 92/52/3 91/53/3 48/54/3 47/55/3
f 140/93/6 139/94/6 106/94/6 105/93/6
f 138/95/6 137/96/6 108/97/6 107/95/6
f 144/98/5 143/99/5 110/99/5 109/98/5
f 142/100/5 141/101/5 112/101/5 111/100/5
f 232/42/4 231/106/4 222/102/4 221/41/4
f 230/103/4 229/43/4 224/44/4 223/103/4
f 228/39/4 227/40/4 226/105/4 225/104/4
